<?xml version="1.0" encoding="UTF-8"?><svg id="a" xmlns="http://www.w3.org/2000/svg" viewBox="0 0 60 60"><polygon points="17.04 12.21 15.91 10.6 17.55 9.46 17.06 8.76 15.43 9.91 14.71 8.88 16.54 7.6 16.05 6.9 13.42 8.73 16.24 12.77 17.04 12.21" fill="#9cca3c"/><path d="M19.52,10.59l-.09-1.19,1.74-.8,.86,.84,.94-.43-3.87-3.64-.77,.36,.31,5.28,.89-.41Zm1.01-2.62l-1.18,.54-.14-1.84,1.32,1.29Z" fill="#9cca3c"/><polygon points="22.9 4.92 23.93 8.84 24.88 8.59 23.85 4.67 25.29 4.29 25.07 3.45 21.24 4.45 21.46 5.29 22.9 4.92" fill="#9cca3c"/><rect x="26.05" y="5.72" width="2.52" height=".78" transform="translate(-.51 3.05) rotate(-6.32)" fill="#9cca3c"/><polygon points="30.78 6.04 32.77 6.14 32.81 5.29 30.82 5.19 30.88 3.94 33.11 4.05 33.15 3.2 29.95 3.04 29.7 7.95 30.67 8 30.78 6.04" fill="#9cca3c"/><path d="M34.88,6.71l.69,.17h.04s.74,2.01,.74,2.01l1.13,.28-.88-2.25c.31-.05,.58-.18,.79-.37s.36-.44,.43-.75c.07-.3,.06-.59-.03-.86-.1-.27-.27-.5-.52-.7-.25-.2-.57-.34-.94-.43l-1.65-.4-1.17,4.78,.95,.23,.42-1.72Zm.55-2.25l.59,.14c.28,.07,.5,.18,.66,.35,.15,.16,.2,.37,.14,.62-.06,.25-.2,.4-.41,.48-.21,.07-.46,.08-.74,0l-.59-.15,.35-1.45Z" fill="#9cca3c"/><polygon points="41.23 10.01 39.14 9.03 39.66 7.92 41.47 8.77 41.82 8 40.01 7.16 40.5 6.11 42.52 7.06 42.88 6.29 39.97 4.93 37.89 9.4 40.87 10.78 41.23 10.01" fill="#9cca3c"/><polygon points="44.18 13.08 44.67 12.38 42.8 11.05 43.51 10.05 45.13 11.21 45.62 10.52 43.99 9.36 44.66 8.42 46.48 9.72 46.97 9.03 44.36 7.17 41.51 11.18 44.18 13.08" fill="#9cca3c"/><path d="M5.05,35.02c-.24-.07-.43-.18-.58-.33-.15-.15-.24-.35-.27-.58-.04-.25,0-.48,.1-.69,.1-.21,.27-.4,.5-.54,.23-.15,.51-.25,.84-.29,.33-.05,.62-.03,.89,.04s.48,.2,.64,.38,.26,.39,.29,.64c.03,.24,0,.45-.1,.64-.1,.19-.25,.35-.46,.48l.58,.74c.31-.17,.55-.43,.71-.78,.17-.35,.22-.75,.15-1.19-.06-.43-.22-.81-.48-1.14-.26-.33-.6-.57-1.01-.72-.41-.15-.87-.19-1.36-.12s-.92,.24-1.28,.5c-.35,.26-.61,.59-.76,.97-.16,.38-.21,.79-.14,1.22,.06,.44,.22,.81,.48,1.1,.26,.29,.56,.47,.91,.54l.35-.87Z" fill="#9cca3c"/><polygon points="9.8 38.81 7.98 39.5 7.2 37.42 9.01 36.74 8.67 35.83 4.06 37.57 4.41 38.48 6.39 37.73 7.17 39.81 5.19 40.55 5.54 41.47 10.14 39.73 9.8 38.81" fill="#9cca3c"/><path d="M11.95,44.57c.2-.39,.29-.79,.26-1.2-.03-.41-.17-.8-.41-1.16-.25-.37-.55-.64-.92-.82-.37-.18-.77-.25-1.2-.21-.44,.04-.87,.21-1.29,.5-.43,.29-.75,.63-.95,1.01-.21,.39-.29,.78-.26,1.19,.03,.41,.17,.8,.41,1.16s.55,.64,.92,.82,.77,.25,1.21,.21c.44-.04,.87-.21,1.3-.5,.43-.29,.74-.63,.95-1.01Zm-1.53,.15c-.27,.18-.54,.3-.81,.35s-.52,.03-.74-.06c-.23-.09-.41-.24-.55-.46-.15-.22-.22-.44-.21-.69,0-.24,.08-.48,.22-.71,.15-.23,.36-.44,.63-.62,.27-.18,.54-.3,.81-.35,.27-.05,.51-.03,.74,.06,.22,.09,.41,.24,.55,.46s.22,.44,.21,.69c0,.24-.08,.48-.22,.71-.14,.23-.35,.44-.62,.62Z" fill="#9cca3c"/><polygon points="14.27 45.4 13.57 44.71 10.12 48.23 12.42 50.48 13.03 49.85 11.43 48.29 14.27 45.4" fill="#9cca3c"/><polygon points="16.71 48.61 18.56 49.86 19.03 49.16 16.38 47.36 13.62 51.43 16.33 53.27 16.81 52.57 14.9 51.27 15.59 50.26 17.24 51.38 17.71 50.69 16.06 49.56 16.71 48.61" fill="#9cca3c"/><path d="M20.28,50.8c.17-.04,.35-.01,.55,.08,.22,.1,.38,.23,.48,.41s.14,.37,.13,.6l.91-.09c.05-.34-.02-.67-.23-.97-.2-.31-.5-.55-.9-.72-.29-.13-.58-.2-.88-.21-.3-.01-.57,.05-.81,.19-.24,.13-.43,.35-.56,.64-.12,.27-.15,.52-.1,.75s.16,.42,.31,.59c.15,.17,.35,.36,.6,.57,.19,.16,.33,.29,.44,.4,.1,.1,.18,.22,.22,.34,.04,.12,.04,.25-.02,.38-.07,.17-.19,.26-.35,.29-.16,.03-.35,0-.56-.09-.26-.12-.46-.28-.59-.49-.13-.21-.2-.45-.19-.73l-.91,.09c-.05,.41,.05,.78,.3,1.12,.25,.34,.58,.61,1,.79,.29,.13,.58,.2,.87,.21,.3,.01,.57-.05,.82-.19,.25-.14,.44-.36,.58-.67,.12-.28,.16-.54,.1-.78-.06-.23-.17-.44-.32-.61-.15-.17-.36-.37-.62-.58-.18-.15-.32-.28-.42-.38-.1-.1-.17-.21-.22-.32-.04-.11-.04-.22,0-.34,.07-.15,.18-.25,.35-.28Z" fill="#9cca3c"/><polygon points="22.76 51.8 24.21 52.14 23.27 56.09 24.23 56.31 25.17 52.37 26.62 52.71 26.82 51.87 22.96 50.95 22.76 51.8" fill="#9cca3c"/><polygon points="27.1 56.82 30.38 56.99 30.42 56.13 28.12 56.02 28.18 54.79 30.17 54.9 30.21 54.06 28.22 53.95 28.28 52.8 30.51 52.91 30.55 52.07 27.35 51.9 27.1 56.82" fill="#9cca3c"/><path d="M35.07,53.94c.13-.26,.17-.54,.12-.85-.04-.31-.16-.57-.35-.78-.19-.22-.44-.37-.74-.45-.31-.09-.65-.1-1.03-.05l-1.68,.24,.7,4.87,.96-.14-.25-1.76,.71-.1h.04s1.43,1.57,1.43,1.57l1.15-.16-1.65-1.76c.27-.17,.47-.38,.59-.64Zm-1.1-.11c-.17,.15-.4,.24-.68,.28l-.61,.09-.21-1.48,.61-.09c.29-.04,.54-.02,.74,.08,.2,.09,.32,.27,.36,.52,.04,.25-.03,.45-.2,.6Z" fill="#9cca3c"/><path d="M40.01,50.94c-.33-.29-.7-.47-1.1-.53s-.81-.02-1.22,.13c-.41,.15-.75,.39-1.01,.71-.26,.32-.42,.69-.48,1.12-.06,.43,0,.89,.19,1.37,.18,.49,.44,.88,.77,1.16,.33,.29,.7,.47,1.1,.53,.41,.07,.81,.02,1.23-.13,.41-.15,.75-.39,1.01-.71,.26-.32,.42-.69,.48-1.12,.06-.43,0-.89-.18-1.38-.18-.48-.44-.87-.77-1.16Zm-.29,3.1c-.14,.2-.33,.34-.57,.43-.24,.09-.48,.11-.72,.05-.23-.06-.45-.19-.64-.38-.19-.2-.34-.45-.46-.75-.11-.31-.16-.59-.15-.87,.01-.27,.09-.51,.23-.7,.14-.2,.33-.34,.57-.43,.25-.09,.48-.11,.72-.05,.24,.06,.45,.18,.64,.38s.34,.45,.46,.75c.11,.31,.16,.6,.15,.87s-.09,.51-.23,.71Z" fill="#9cca3c"/><polygon points="43.48 52.31 41.32 48.88 40.5 49.4 43.12 53.57 45.84 51.85 45.37 51.12 43.48 52.31" fill="#9cca3c"/><rect x="44.77" y="48.67" width="2.52" height=".78" transform="translate(-20.78 41.15) rotate(-40.07)" fill="#9cca3c"/><polygon points="49.97 45.07 49.33 44.52 48.03 46.03 47.07 45.21 48.52 43.52 47.88 42.96 45.79 45.4 49.53 48.6 50.16 47.86 48.67 46.58 49.97 45.07" fill="#9cca3c"/><path d="M52,40.71c-.13-.26-.33-.46-.6-.62-.27-.15-.55-.22-.83-.2-.29,.02-.56,.12-.81,.31-.26,.19-.48,.45-.67,.78l-.84,1.48,4.27,2.44,.48-.85-1.54-.88,.35-.62,.02-.04,2.13-.16,.58-1.01-2.4,.22c.04-.32,0-.6-.14-.86Zm-.96,1.52l-.3,.53-1.29-.74,.3-.53c.15-.25,.32-.43,.51-.53,.2-.1,.41-.09,.63,.04,.22,.12,.33,.3,.35,.53,.01,.23-.05,.46-.2,.71Z" fill="#9cca3c"/><polygon points="54.55 38.82 53.39 38.43 54.03 36.54 53.23 36.27 52.6 38.16 51.5 37.8 52.21 35.68 51.41 35.41 50.39 38.45 55.05 40.02 56.1 36.91 55.29 36.63 54.55 38.82" fill="#9cca3c"/><polygon points="56.06 31.93 55.74 34.21 54.53 34.04 54.81 32.07 53.98 31.95 53.7 33.93 52.55 33.77 52.86 31.55 52.02 31.44 51.58 34.61 56.45 35.3 56.91 32.05 56.06 31.93" fill="#9cca3c"/><path d="M5.57,28.47s.03,0,.04,0c.26,0,.48-.2,.5-.46,.44-5.32,2.69-10.42,6.34-14.34,.19-.2,.18-.52-.03-.71-.2-.19-.52-.18-.71,.03-3.8,4.09-6.15,9.39-6.6,14.94-.02,.28,.18,.52,.46,.54Z" fill="#9cca3c"/><path d="M53.86,27.65c.03,.26,.24,.45,.5,.45,.02,0,.03,0,.05,0,.28-.03,.48-.27,.45-.55-.53-5.43-2.88-10.62-6.61-14.61-.19-.2-.5-.21-.71-.02-.2,.19-.21,.5-.02,.71,3.64,3.89,5.83,8.74,6.35,14.02Z" fill="#9cca3c"/><path d="M30,.5C13.73,.5,.5,13.73,.5,30s13.23,29.5,29.5,29.5,29.5-13.23,29.5-29.5S46.27,.5,30,.5Zm0,58C14.29,58.5,1.5,45.71,1.5,30S14.29,1.5,30,1.5s28.5,12.79,28.5,28.5-12.79,28.5-28.5,28.5Z" fill="#9cca3c"/><path d="M30,9.74c-11.17,0-20.26,9.09-20.26,20.26s9.09,20.26,20.26,20.26,20.26-9.09,20.26-20.26S41.17,9.74,30,9.74Zm0,39.51c-10.62,0-19.26-8.64-19.26-19.26S19.38,10.74,30,10.74s19.26,8.64,19.26,19.26-8.64,19.26-19.26,19.26Z" fill="#9cca3c"/><path d="M38.65,19.62c-.5-.07-.93-.11-1.35-.11-3.42,0-6.05,2.02-7.29,3.21-1.25-1.18-3.89-3.21-7.3-3.21-.41,0-.86,.04-1.35,.11-2.29,.37-4.29,1.9-5.36,4.09-1.45,3-.57,7.52,.63,9.63,2,3.52,5.95,6.89,12.8,10.92,.17,.1,.36,.15,.57,.15s.42-.06,.56-.15c6.85-4.02,10.8-7.38,12.81-10.92,1.2-2.11,2.08-6.63,.63-9.63-1.06-2.19-3.06-3.72-5.35-4.09Zm3.85,13.22c-1.92,3.38-5.75,6.63-12.45,10.55,0,0-.06,0-.09,0,0,0-.01,0-.02,0-6.7-3.94-10.54-7.19-12.45-10.55-1.06-1.87-1.88-6.04-.6-8.7,.92-1.9,2.65-3.22,4.61-3.54,.43-.06,.83-.1,1.2-.1,3.4,0,5.99,2.28,6.94,3.26,.09,.1,.22,.15,.36,.15h0c.14,0,.26-.06,.36-.15,.95-.98,3.52-3.26,6.93-3.26,.37,0,.75,.03,1.2,.09,1.97,.32,3.69,1.64,4.6,3.54,1.29,2.66,.46,6.83-.6,8.7Z" fill="#9cca3c"/><path d="M21.28,22.95c-.08,.03-2.04,.85-2.82,2.97-.6,1.62-.35,3.52,.75,5.64,.1,.2,.3,.31,.51,.31,.09,0,.18-.02,.26-.06,.28-.15,.39-.49,.25-.77-.94-1.81-1.18-3.39-.7-4.7,.6-1.63,2.15-2.31,2.19-2.32,.29-.12,.43-.46,.31-.75-.12-.29-.46-.43-.75-.31Z" fill="#9cca3c"/></svg>