<?xml version="1.0" encoding="utf-8"?>
<!-- Generator: Adobe Illustrator 24.2.0, SVG Export Plug-In . SVG Version: 6.00 Build 0)  -->
<svg version="1.1" id="a" xmlns="http://www.w3.org/2000/svg" xmlns:xlink="http://www.w3.org/1999/xlink" x="0px" y="0px"
	 viewBox="0 0 60 60" style="enable-background:new 0 0 60 60;" xml:space="preserve">
<style type="text/css">
	.st0{fill:#9CCA3C;}
</style>
<g>
	<polygon class="st0" points="20.5,8 19.2,6.7 19.3,8.5 	"/>
	<path class="st0" d="M11.2,43.4c0-0.2-0.1-0.5-0.2-0.7s-0.3-0.4-0.6-0.5c-0.2-0.1-0.5-0.1-0.7-0.1c-0.3,0-0.5,0.2-0.8,0.3
		c-0.3,0.2-0.5,0.4-0.6,0.6c-0.1,0.2-0.2,0.5-0.2,0.7c0,0.2,0.1,0.5,0.2,0.7c0.1,0.2,0.3,0.4,0.6,0.5c0.2,0.1,0.5,0.1,0.7,0.1
		c0.3,0,0.5-0.2,0.8-0.3c0.3-0.2,0.5-0.4,0.6-0.6C11.2,43.9,11.2,43.6,11.2,43.4z"/>
	<path class="st0" d="M39.3,51.7c-0.2-0.2-0.4-0.3-0.6-0.4c-0.2-0.1-0.5,0-0.7,0c-0.2,0.1-0.4,0.2-0.6,0.4c-0.1,0.2-0.2,0.4-0.2,0.7
		c0,0.3,0,0.6,0.1,0.9c0.1,0.3,0.3,0.6,0.5,0.8c0.2,0.2,0.4,0.3,0.6,0.4c0.2,0.1,0.5,0,0.7,0c0.2-0.1,0.4-0.2,0.6-0.4
		c0.1-0.2,0.2-0.4,0.2-0.7s0-0.6-0.1-0.9C39.7,52.1,39.5,51.9,39.3,51.7z"/>
	<path class="st0" d="M50.9,41c-0.2-0.1-0.4-0.1-0.6,0c-0.2,0.1-0.4,0.3-0.5,0.5L49.4,42l1.3,0.7l0.3-0.5c0.1-0.2,0.2-0.5,0.2-0.7
		C51.2,41.3,51.1,41.1,50.9,41z"/>
	<path class="st0" d="M36.4,6c0.2-0.1,0.4-0.2,0.4-0.5c0.1-0.2,0-0.5-0.1-0.6c-0.2-0.2-0.4-0.3-0.7-0.3l-0.6-0.1L35,5.9L35.6,6
		C35.9,6.1,36.2,6.1,36.4,6z"/>
	<path class="st0" d="M33.8,52.7c-0.2-0.1-0.5-0.1-0.7-0.1l-0.6,0.1l0.2,1.5l0.6-0.1c0.3,0,0.5-0.1,0.7-0.3c0.2-0.1,0.2-0.3,0.2-0.6
		C34.1,53,34,52.8,33.8,52.7z"/>
	<path class="st0" d="M30,1C14,1,1,14,1,30c0,16,13,29,29,29c16,0,29-13,29-29C59,14,46,1,30,1z M47.5,12.9c0.2-0.2,0.5-0.2,0.7,0
		c3.8,4.1,6.1,9.1,6.6,14.6c0,0.3-0.2,0.5-0.5,0.5c0,0,0,0,0,0c-0.3,0-0.5-0.2-0.5-0.5c-0.5-5.3-2.7-10.1-6.3-14
		C47.3,13.4,47.3,13.1,47.5,12.9z M50,30c0,11-9,20-20,20s-20-9-20-20s9-20,20-20S50,19,50,30z M46.9,9l-0.5,0.7l-1.8-1.3L44,9.4
		l1.6,1.2l-0.5,0.7L43.5,10l-0.7,1l1.9,1.3l-0.5,0.7l-2.7-1.9l2.9-4L46.9,9z M39.9,4.9l2.9,1.4l-0.4,0.8l-2-0.9l-0.5,1L41.8,8
		l-0.4,0.8l-1.8-0.8L39.1,9l2.1,1l-0.4,0.8l-3-1.4L39.9,4.9z M34.7,3.4l1.7,0.4c0.4,0.1,0.7,0.2,0.9,0.4c0.3,0.2,0.4,0.4,0.5,0.7
		c0.1,0.3,0.1,0.6,0,0.9c-0.1,0.3-0.2,0.6-0.4,0.7c-0.2,0.2-0.5,0.3-0.8,0.4l0.9,2.2l-1.1-0.3l-0.7-2l0,0l-0.7-0.2l-0.4,1.7
		l-0.9-0.2L34.7,3.4z M29.9,3l3.2,0.2l0,0.9l-2.2-0.1l-0.1,1.3l2,0.1l0,0.8l-2-0.1l-0.1,2l-1,0L29.9,3z M28.5,5.6l0.1,0.8l-2.5,0.3
		L26,5.9L28.5,5.6z M25,3.4l0.2,0.8l-1.4,0.4l1,3.9l-1,0.2l-1-3.9l-1.4,0.4l-0.2-0.8L25,3.4z M19.1,5.4L22.9,9L22,9.4l-0.9-0.8
		l-1.7,0.8l0.1,1.2L18.6,11l-0.3-5.3L19.1,5.4z M16,6.9l0.5,0.7l-1.8,1.3l0.7,1L17,8.8l0.5,0.7l-1.6,1.1l1.1,1.6l-0.8,0.6l-2.8-4
		L16,6.9z M11.7,13c0.2-0.2,0.5-0.2,0.7,0c0.2,0.2,0.2,0.5,0,0.7c-3.7,3.9-5.9,9-6.3,14.3c0,0.3-0.2,0.5-0.5,0.5c0,0,0,0,0,0
		c-0.3,0-0.5-0.3-0.5-0.5C5.6,22.4,7.9,17.1,11.7,13z M3.3,34.2c-0.1-0.4,0-0.8,0.1-1.2c0.2-0.4,0.4-0.7,0.8-1
		c0.4-0.3,0.8-0.4,1.3-0.5c0.5-0.1,1,0,1.4,0.1c0.4,0.2,0.7,0.4,1,0.7c0.3,0.3,0.4,0.7,0.5,1.1c0.1,0.4,0,0.8-0.2,1.2
		c-0.2,0.3-0.4,0.6-0.7,0.8l-0.6-0.7c0.2-0.1,0.4-0.3,0.5-0.5c0.1-0.2,0.1-0.4,0.1-0.6c0-0.2-0.1-0.5-0.3-0.6
		c-0.2-0.2-0.4-0.3-0.6-0.4c-0.3-0.1-0.6-0.1-0.9,0c-0.3,0-0.6,0.1-0.8,0.3c-0.2,0.1-0.4,0.3-0.5,0.5c-0.1,0.2-0.1,0.4-0.1,0.7
		c0,0.2,0.1,0.4,0.3,0.6C4.6,34.8,4.8,34.9,5,35l-0.3,0.9c-0.3-0.1-0.6-0.3-0.9-0.5C3.5,35.1,3.4,34.7,3.3,34.2z M5.2,40.6l2-0.7
		l-0.8-2.1l-2,0.7L4,37.6l4.6-1.7L9,36.7l-1.8,0.7L8,39.5l1.8-0.7l0.3,0.9l-4.6,1.7L5.2,40.6z M8.5,45.9c-0.4-0.2-0.7-0.5-0.9-0.8
		c-0.2-0.4-0.4-0.8-0.4-1.2c0-0.4,0.1-0.8,0.3-1.2c0.2-0.4,0.5-0.7,1-1c0.4-0.3,0.9-0.5,1.3-0.5c0.4,0,0.8,0,1.2,0.2
		s0.7,0.5,0.9,0.8c0.2,0.4,0.4,0.8,0.4,1.2c0,0.4-0.1,0.8-0.3,1.2c-0.2,0.4-0.5,0.7-0.9,1c-0.4,0.3-0.9,0.5-1.3,0.5
		C9.2,46.1,8.8,46.1,8.5,45.9z M12.4,50.5l-2.3-2.3l3.4-3.5l0.7,0.7l-2.8,2.9l1.6,1.6L12.4,50.5z M17.2,51.4l-1.7-1.1l-0.7,1
		l1.9,1.3l-0.5,0.7l-2.7-1.8l2.8-4.1l2.7,1.8l-0.5,0.7l-1.8-1.3l-0.7,1l1.7,1.1L17.2,51.4z M19.9,51.4c0,0.1,0.1,0.2,0.2,0.3
		c0.1,0.1,0.2,0.2,0.4,0.4c0.3,0.2,0.5,0.4,0.6,0.6c0.2,0.2,0.3,0.4,0.3,0.6s0,0.5-0.1,0.8c-0.1,0.3-0.3,0.5-0.6,0.7
		c-0.2,0.1-0.5,0.2-0.8,0.2s-0.6-0.1-0.9-0.2c-0.4-0.2-0.8-0.4-1-0.8c-0.3-0.3-0.4-0.7-0.3-1.1l0.9-0.1c0,0.3,0.1,0.5,0.2,0.7
		s0.3,0.4,0.6,0.5c0.2,0.1,0.4,0.1,0.6,0.1c0.2,0,0.3-0.1,0.4-0.3c0.1-0.1,0.1-0.3,0-0.4c0-0.1-0.1-0.2-0.2-0.3
		c-0.1-0.1-0.2-0.2-0.4-0.4c-0.3-0.2-0.5-0.4-0.6-0.6c-0.1-0.2-0.2-0.4-0.3-0.6c-0.1-0.2,0-0.5,0.1-0.8c0.1-0.3,0.3-0.5,0.6-0.6
		c0.2-0.1,0.5-0.2,0.8-0.2c0.3,0,0.6,0.1,0.9,0.2c0.4,0.2,0.7,0.4,0.9,0.7c0.2,0.3,0.3,0.6,0.2,1l-0.9,0.1c0-0.2,0-0.4-0.1-0.6
		c-0.1-0.2-0.3-0.3-0.5-0.4c-0.2-0.1-0.4-0.1-0.6-0.1c-0.2,0-0.3,0.1-0.3,0.3C19.9,51.2,19.9,51.3,19.9,51.4z M26.6,52.7l-1.5-0.3
		l-0.9,3.9l-1-0.2l0.9-3.9l-1.5-0.3l0.2-0.8l3.9,0.9L26.6,52.7z M30.5,52.9l-2.2-0.1L28.2,54l2,0.1l0,0.8l-2-0.1L28.1,56l2.3,0.1
		l0,0.9l-3.3-0.2l0.2-4.9l3.2,0.2L30.5,52.9z M34.9,56.5l-1.4-1.6l0,0L32.8,55l0.3,1.8l-1,0.1L31.4,52l1.7-0.2c0.4-0.1,0.7,0,1,0
		c0.3,0.1,0.6,0.2,0.7,0.5c0.2,0.2,0.3,0.5,0.3,0.8c0,0.3,0,0.6-0.1,0.9c-0.1,0.3-0.3,0.5-0.6,0.6l1.7,1.8L34.9,56.5z M40.5,54.6
		c-0.3,0.3-0.6,0.6-1,0.7c-0.4,0.2-0.8,0.2-1.2,0.1c-0.4-0.1-0.8-0.2-1.1-0.5c-0.3-0.3-0.6-0.7-0.8-1.2c-0.2-0.5-0.2-0.9-0.2-1.4
		c0.1-0.4,0.2-0.8,0.5-1.1c0.3-0.3,0.6-0.6,1-0.7c0.4-0.2,0.8-0.2,1.2-0.1c0.4,0.1,0.8,0.2,1.1,0.5c0.3,0.3,0.6,0.7,0.8,1.2
		c0.2,0.5,0.2,0.9,0.2,1.4C40.9,53.9,40.7,54.3,40.5,54.6z M43.1,53.6l-2.6-4.2l0.8-0.5l2.2,3.4l1.9-1.2l0.5,0.7L43.1,53.6z
		 M45.3,50.2l-0.5-0.6l1.9-1.6l0.5,0.6L45.3,50.2z M49.5,48.6l-3.7-3.2l2.1-2.4l0.6,0.6L47,45.2l1,0.8l1.3-1.5l0.6,0.6l-1.3,1.5
		l1.5,1.3L49.5,48.6z M53.9,42.4l-2.1,0.2l0,0l-0.4,0.6l1.5,0.9l-0.5,0.8l-4.3-2.4l0.8-1.5c0.2-0.3,0.4-0.6,0.7-0.8s0.5-0.3,0.8-0.3
		c0.3,0,0.6,0.1,0.8,0.2c0.3,0.2,0.5,0.4,0.6,0.6c0.1,0.3,0.2,0.5,0.1,0.9l2.4-0.2L53.9,42.4z M55,40l-4.7-1.6l1-3l0.8,0.3l-0.7,2.1
		l1.1,0.4l0.6-1.9l0.8,0.3l-0.6,1.9l1.2,0.4l0.7-2.2l0.8,0.3L55,40z M51.6,34.6l0.4-3.2l0.8,0.1l-0.3,2.2l1.1,0.2l0.3-2l0.8,0.1
		l-0.3,2l1.2,0.2l0.3-2.3l0.8,0.1l-0.5,3.2L51.6,34.6z"/>
	<path class="st0" d="M38.7,19.5c-0.5-0.1-0.9-0.1-1.4-0.1c-3.4,0-6,1.9-7.3,3.2c-1.3-1.2-3.9-3.2-7.3-3.2c-0.4,0-0.9,0-1.4,0.1
		c-2.3,0.4-4.4,1.9-5.5,4.2c-1.5,3.2-0.5,7.7,0.6,9.8c2,3.5,6,6.9,12.9,11c0.2,0.1,0.4,0.2,0.6,0.2c0.2,0,0.5-0.1,0.6-0.2
		c6.9-4,10.8-7.4,12.9-11c1.2-2.1,2.2-6.6,0.6-9.8C43.1,21.4,41,19.8,38.7,19.5z M42.4,32.8c-1.9,3.4-5.7,6.6-12.3,10.5
		c-6.7-3.9-10.5-7.2-12.4-10.5c-1-1.8-1.9-5.9-0.6-8.6c0.9-1.9,2.6-3.1,4.5-3.5c0.4-0.1,0.8-0.1,1.2-0.1c3.3,0,5.9,2.2,6.8,3.2
		c0.1,0.1,0.3,0.2,0.5,0.2c0.2,0,0.3-0.1,0.5-0.2c0.9-1,3.5-3.2,6.8-3.2c0.4,0,0.7,0,1.2,0.1c1.9,0.3,3.6,1.6,4.5,3.5
		C44.2,26.8,43.4,30.9,42.4,32.8z"/>
	<path class="st0" d="M21.3,22.8c-0.1,0-2.7,1.2-3.1,3.9c-0.4,2.4,0.7,4.3,1,4.9c0.1,0.2,0.3,0.3,0.6,0.3c0.1,0,0.2,0,0.3-0.1
		c0.3-0.2,0.4-0.6,0.3-0.9c-0.5-0.9-1.1-2.3-0.9-4.1c0.3-2,2.3-2.9,2.4-2.9c0.3-0.1,0.5-0.5,0.3-0.9C22,22.8,21.6,22.7,21.3,22.8z"
		/>
</g>
</svg>
