<?xml version="1.0" encoding="utf-8"?>
<!-- Generator: Adobe Illustrator 24.2.0, SVG Export Plug-In . SVG Version: 6.00 Build 0)  -->
<svg version="1.1" id="a" xmlns="http://www.w3.org/2000/svg" xmlns:xlink="http://www.w3.org/1999/xlink" x="0px" y="0px"
	 viewBox="0 0 60 60" style="enable-background:new 0 0 60 60;" xml:space="preserve">
<style type="text/css">
	.st0{fill:#9CCA3C;}
</style>
<g>
	<polygon class="st0" points="26.3,4.6 25.9,6.4 27.2,6.2 	"/>
	<path class="st0" d="M32.9,5.7c0-0.5-0.1-0.9-0.3-1.2S31.8,4,31.3,3.9l-0.5,0l-0.2,3.3l0.5,0c0.5,0,0.9-0.1,1.2-0.3
		C32.7,6.6,32.8,6.2,32.9,5.7z"/>
	<path class="st0" d="M39.5,51c-0.2,0-0.5,0-0.7,0.1l-0.6,0.2l0.6,1.4l0.6-0.2c0.3-0.1,0.5-0.3,0.6-0.5c0.1-0.2,0.1-0.4,0-0.6
		C39.9,51.1,39.8,51,39.5,51z"/>
	<path class="st0" d="M37.2,7.9c0.4-0.2,0.6-0.5,0.7-1c0.1-0.5,0.1-0.9-0.1-1.3c-0.2-0.4-0.5-0.6-1-0.7l-0.5-0.2l-0.9,3.1L36,7.9
		C36.5,8.1,36.9,8.1,37.2,7.9z"/>
	<polygon class="st0" points="34.3,54.6 35.5,54.4 34.6,52.8 	"/>
	<path class="st0" d="M30,1C14,1,1,14,1,30c0,16,13,29,29,29c16,0,29-13,29-29C59,14,46,1,30,1z M46.6,8.8c0.4,0.3,0.7,0.6,0.8,1
		c0.2,0.4,0.2,0.8,0.2,1.2c-0.1,0.4-0.2,0.8-0.6,1.2c-0.3,0.4-0.7,0.7-1.1,0.8c-0.4,0.2-0.8,0.2-1.2,0.1c-0.4-0.1-0.8-0.3-1.2-0.6
		l-1.3-1l3.1-3.8L46.6,8.8z M36.4,36.7c-0.4,0-0.7,0.3-0.7,0.7v3.5l-5.1-2.5v-7.7c0-0.1,0-0.2-0.1-0.3c0,0,0,0,0-0.1
		c-0.1-0.1-0.1-0.1-0.2-0.2c0,0,0,0,0,0l-6.1-3v-2.2c0-0.4-0.3-0.7-0.6-0.7s-0.6,0.3-0.6,0.7V27l-6.1,3c0,0,0,0,0,0
		c-0.1,0-0.1,0.1-0.2,0.2c0,0,0,0,0,0.1c-0.1,0.1-0.1,0.2-0.1,0.3v8.1c0,0.2,0.1,0.5,0.4,0.6l6.4,3.2c0.1,0,0.2,0.1,0.3,0.1
		c0,0,0,0,0,0s0,0,0,0c0.1,0,0.2,0,0.3-0.1l6.1-3l6.2,3c0.1,0,0.2,0.1,0.3,0.1c0,0,0,0,0,0s0,0,0,0c0.1,0,0.2,0,0.3-0.1l4.9-2.4
		l3.4,3.1c-3.7,4.2-9,6.8-15,6.8c-11,0-20-9-20-20c0-5.4,2.2-10.3,5.7-14l24.9,23.1l-3.5,1.7v-3.5C37.1,37,36.8,36.7,36.4,36.7z
		 M18.6,30.6l5-2.4l4.9,2.4L23.6,33L18.6,30.6z M22.9,34.1v6.7l-5.1-2.5v-6.7L22.9,34.1z M24.2,34.1l5.1-2.5v6.7l-5.1,2.5V34.1z
		 M42.9,39.4l0.2-0.1c0.2-0.1,0.4-0.3,0.4-0.6v-8.1c0-0.1,0-0.2-0.1-0.3c0,0,0,0,0-0.1c-0.1-0.1-0.1-0.1-0.2-0.2c0,0,0,0,0,0l-6.1-3
		v-7.8c0-0.1,0-0.2-0.1-0.3c0,0,0,0,0-0.1c-0.1-0.1-0.1-0.1-0.2-0.2c0,0,0,0,0,0l-6.4-3.2c-0.2-0.1-0.4-0.1-0.6,0l-6.4,3.2
		c0,0,0,0,0,0c-0.1,0-0.1,0.1-0.2,0.2c0,0,0,0,0,0.1c-0.1,0.1-0.1,0.2-0.1,0.3v1.1c0,0.4,0.3,0.7,0.6,0.7s0.6-0.3,0.6-0.7v-0.1
		l5.1,2.5v3.3c0,0.4,0.3,0.7,0.6,0.7s0.6-0.3,0.6-0.7v-3.3l5.1-2.5V27l-3,1.5c-0.3,0.2-0.5,0.6-0.3,0.9c0.2,0.3,0.6,0.5,0.9,0.3
		l3-1.5l4.9,2.4l-3.9,1.9c-0.3,0.2-0.5,0.5-0.3,0.9c0.1,0.2,0.3,0.4,0.6,0.4c0.1,0,0.2,0,0.3-0.1l4.1-2v6.7l-0.3,0.2L16.6,15.2
		C20.2,12,24.9,10,30,10c11,0,20,9,20,20c0,4.6-1.6,8.8-4.2,12.2L42.9,39.4z M35,19.3L30,21.7l-5-2.4l5-2.4L35,19.3z M43.9,6.9
		l-0.4,0.8l-2-1l-0.5,1l1.8,0.9l-0.4,0.7l-1.8-0.9l-0.6,1.1l2,1.1l-0.4,0.8l-2.9-1.5l2.3-4.4L43.9,6.9z M35.6,3.6L37.2,4
		c0.5,0.1,0.8,0.3,1.2,0.6C38.7,5,38.9,5.3,39,5.7c0.1,0.4,0.1,0.9,0,1.4c-0.1,0.5-0.4,0.9-0.7,1.2c-0.3,0.3-0.7,0.5-1.1,0.6
		c-0.4,0.1-0.9,0.1-1.3-0.1l-1.6-0.5L35.6,3.6z M29.9,3l1.6,0.1c0.5,0,0.9,0.2,1.3,0.4s0.7,0.5,0.9,0.9c0.2,0.4,0.3,0.8,0.2,1.3
		c0,0.5-0.2,0.9-0.4,1.3s-0.6,0.6-1,0.8C32.1,8,31.6,8.1,31.2,8l-1.6-0.1L29.9,3z M25.7,3.4l0.8-0.1l2.7,4.6l-1,0.1l-0.6-1l-1.9,0.3
		l-0.3,1.2l-1,0.1L25.7,3.4z M17.6,6.3c0.2-0.3,0.6-0.6,1-0.8c0.4-0.2,0.8-0.3,1.2-0.2c0.4,0,0.8,0.2,1.1,0.4
		c0.4,0.3,0.6,0.6,0.9,1.1c0.2,0.5,0.3,0.9,0.3,1.4S21.9,9,21.7,9.3c-0.2,0.3-0.6,0.6-1,0.8s-0.8,0.3-1.2,0.2
		c-0.4,0-0.8-0.2-1.1-0.4s-0.6-0.6-0.9-1.1c-0.2-0.5-0.3-0.9-0.3-1.4C17.3,7,17.4,6.6,17.6,6.3z M12.5,9.5l3.9,1.1l-2-2.6l0.7-0.6
		l3,3.9l-0.6,0.5l-3.9-1.1l2,2.6l-0.7,0.5l-3-3.9L12.5,9.5z M15.9,50.1c-0.1,0.1-0.2,0.2-0.4,0.2c-0.1,0-0.2,0-0.3-0.1
		C8.8,45.5,5,37.9,5,30c0-5.8,2-11.4,5.7-15.9c0.2-0.2,0.5-0.2,0.7-0.1c0.2,0.2,0.2,0.5,0.1,0.7C7.9,19,6,24.4,6,30
		c0,7.6,3.7,14.8,9.8,19.4C16,49.5,16.1,49.8,15.9,50.1z M19.8,51.4c0,0.1,0.1,0.2,0.2,0.3c0.1,0.1,0.2,0.2,0.4,0.4
		c0.3,0.2,0.5,0.4,0.6,0.6c0.2,0.2,0.3,0.4,0.3,0.6c0.1,0.2,0,0.5-0.1,0.8c-0.1,0.3-0.3,0.5-0.6,0.7c-0.2,0.1-0.5,0.2-0.8,0.2
		c-0.3,0-0.6-0.1-0.9-0.2c-0.4-0.2-0.7-0.5-1-0.8c-0.2-0.3-0.3-0.7-0.3-1.1l0.9-0.1c0,0.3,0.1,0.5,0.2,0.7c0.1,0.2,0.3,0.4,0.6,0.5
		C19.6,54,19.8,54,20,54c0.2,0,0.3-0.1,0.4-0.3c0.1-0.1,0.1-0.3,0-0.4c0-0.1-0.1-0.2-0.2-0.3c-0.1-0.1-0.2-0.2-0.4-0.4
		c-0.3-0.2-0.5-0.4-0.6-0.6c-0.1-0.2-0.2-0.4-0.3-0.6c-0.1-0.2,0-0.5,0.1-0.8c0.1-0.3,0.3-0.5,0.6-0.6c0.2-0.1,0.5-0.2,0.8-0.2
		s0.6,0.1,0.9,0.2c0.4,0.2,0.7,0.4,0.9,0.7c0.2,0.3,0.3,0.6,0.2,1l-0.9,0.1c0-0.2,0-0.4-0.1-0.6c-0.1-0.2-0.3-0.3-0.5-0.4
		c-0.2-0.1-0.4-0.1-0.5-0.1c-0.2,0-0.3,0.1-0.4,0.3C19.8,51.1,19.8,51.2,19.8,51.4z M26.5,54.8c-0.1,0.4-0.3,0.7-0.5,1
		c-0.2,0.3-0.5,0.4-0.9,0.5c-0.3,0.1-0.7,0.1-1.1,0c-0.4-0.1-0.8-0.3-1-0.5s-0.4-0.5-0.5-0.9c-0.1-0.3-0.1-0.7,0-1.1l0.7-2.9l1,0.2
		l-0.6,2.6c-0.1,0.5-0.1,0.8,0,1.1s0.4,0.4,0.7,0.5c0.3,0.1,0.6,0,0.9-0.2c0.2-0.2,0.4-0.5,0.5-1l0.6-2.6l1,0.2L26.5,54.8z
		 M31.2,56.8c-0.3,0.1-0.7,0.2-1.1,0.2c-0.5,0-0.9-0.1-1.3-0.3c-0.4-0.2-0.7-0.5-0.9-0.9c-0.2-0.4-0.3-0.8-0.3-1.3
		c0-0.5,0.1-0.9,0.3-1.3c0.2-0.4,0.5-0.7,0.9-0.9c0.4-0.2,0.8-0.3,1.2-0.3c0.5,0,0.8,0.1,1.2,0.3c0.3,0.2,0.6,0.5,0.7,0.8l-0.8,0.5
		c-0.1-0.2-0.2-0.4-0.4-0.5c-0.2-0.1-0.4-0.2-0.7-0.2c-0.3,0-0.5,0.1-0.7,0.2c-0.2,0.1-0.4,0.3-0.5,0.6c-0.1,0.3-0.2,0.5-0.2,0.9
		c0,0.3,0.1,0.6,0.2,0.9c0.1,0.3,0.3,0.4,0.5,0.6c0.2,0.1,0.5,0.2,0.8,0.2c0.3,0,0.6-0.1,0.8-0.3l0-0.8L30,55l0-0.8l1.9,0l0,2
		C31.8,56.4,31.5,56.6,31.2,56.8z M36.7,56.1l-0.6-1l-1.9,0.4L34,56.7l-1,0.2l0.9-5.2l0.8-0.2l2.9,4.4L36.7,56.1z M41.6,54.3
		l-1.8-1.2l0,0l-0.7,0.3l0.7,1.6l-0.9,0.4L37,51l1.6-0.7c0.4-0.2,0.7-0.2,1-0.2c0.3,0,0.6,0.1,0.8,0.2c0.2,0.2,0.4,0.4,0.5,0.7
		c0.1,0.3,0.2,0.6,0.1,0.9c-0.1,0.3-0.2,0.5-0.4,0.8l2,1.3L41.6,54.3z M44.8,50.2c-0.1,0.1-0.2,0.1-0.3,0.1c-0.2,0-0.3-0.1-0.4-0.2
		c-0.2-0.2-0.1-0.5,0.1-0.7C50.3,44.9,54,37.6,54,30c0-5.4-1.8-10.5-5.1-14.8c-0.2-0.2-0.1-0.5,0.1-0.7s0.5-0.1,0.7,0.1
		C53.2,19.1,55,24.4,55,30C55,37.9,51.2,45.5,44.8,50.2z"/>
	<path class="st0" d="M45.2,12.3c0.4,0,0.8-0.3,1.1-0.7c0.3-0.4,0.5-0.8,0.4-1.2c0-0.4-0.3-0.8-0.7-1.1L45.6,9l-2,2.5l0.4,0.3
		C44.4,12.2,44.8,12.4,45.2,12.3z"/>
	<path class="st0" d="M19,9.1c0.2,0.2,0.4,0.3,0.7,0.3s0.5,0,0.7-0.1c0.2-0.1,0.4-0.3,0.5-0.5c0.1-0.2,0.2-0.4,0.2-0.7
		c0-0.3-0.1-0.6-0.2-0.9c-0.1-0.3-0.3-0.5-0.5-0.7c-0.2-0.2-0.4-0.3-0.7-0.3s-0.5,0-0.7,0.1s-0.4,0.3-0.5,0.5
		c-0.1,0.2-0.2,0.4-0.2,0.7s0.1,0.6,0.2,0.9C18.6,8.7,18.8,8.9,19,9.1z"/>
</g>
</svg>
