<?xml version="1.0" encoding="UTF-8"?><svg id="a" xmlns="http://www.w3.org/2000/svg" viewBox="0 0 60 60"><path d="M12.6,16.45l-.56-1.06,1.27-1.43,1.12,.42,.69-.77-5-1.78-.57,.64,2.4,4.71,.65-.73Zm-1.85-3.46l1.73,.66-.86,.97-.87-1.62Z" fill="#9cca3c"/><path d="M14.99,10.18c.22,.07,.44,.09,.66,.06,.22-.04,.49-.1,.8-.2,.24-.07,.43-.12,.57-.15,.14-.03,.28-.03,.41,0,.13,.03,.23,.1,.31,.22,.1,.15,.12,.3,.06,.46s-.19,.3-.38,.43c-.24,.16-.48,.24-.73,.24-.25,0-.49-.08-.72-.23l-.41,.82c.32,.26,.69,.37,1.11,.35,.42-.03,.83-.17,1.21-.42,.26-.17,.48-.38,.65-.62s.26-.51,.28-.79c.02-.28-.07-.57-.25-.85-.17-.26-.37-.42-.6-.5s-.46-.09-.69-.06c-.23,.04-.5,.11-.83,.21-.22,.07-.41,.12-.54,.15-.14,.03-.27,.04-.38,.01-.12-.02-.21-.09-.28-.19-.09-.14-.11-.29-.05-.45,.06-.16,.18-.3,.36-.42,.2-.13,.4-.2,.6-.19,.2,0,.39,.08,.58,.21l.41-.82c-.26-.23-.58-.34-.94-.33-.37,0-.73,.13-1.09,.37-.26,.18-.48,.39-.65,.63-.17,.24-.26,.5-.28,.78-.02,.28,.06,.55,.24,.81,.17,.25,.36,.41,.58,.49Z" fill="#9cca3c"/><path d="M19.29,9.41c.34,.28,.71,.44,1.12,.49,.41,.05,.81,0,1.22-.17,.41-.17,.73-.41,.99-.74,.25-.32,.4-.7,.44-1.14,.05-.44-.03-.89-.23-1.38-.2-.48-.46-.85-.8-1.13-.34-.28-.71-.44-1.12-.49-.41-.05-.81,0-1.22,.17-.41,.17-.73,.41-.99,.74-.25,.33-.4,.71-.44,1.14-.04,.44,.03,.89,.23,1.37,.2,.48,.47,.86,.81,1.14Zm.17-3.1c.13-.2,.32-.35,.56-.45,.24-.1,.48-.12,.72-.07,.24,.05,.45,.17,.65,.36,.2,.19,.36,.43,.48,.74,.12,.3,.18,.59,.18,.87,0,.27-.08,.51-.21,.71-.13,.2-.32,.35-.56,.45-.24,.1-.48,.12-.72,.07-.24-.05-.45-.17-.65-.36-.2-.19-.36-.44-.48-.74-.12-.3-.18-.59-.18-.86,0-.27,.08-.51,.21-.71Z" fill="#9cca3c"/><path d="M24.24,7.76c.22,.28,.49,.47,.83,.58,.34,.11,.72,.13,1.15,.06,.42-.07,.78-.22,1.06-.44s.48-.5,.59-.83c.11-.33,.13-.71,.06-1.13l-.5-2.89-.96,.17,.46,2.66c.08,.47,.05,.83-.11,1.1s-.4,.42-.75,.48c-.35,.06-.64,0-.87-.2-.23-.2-.39-.53-.47-1l-.46-2.66-.96,.17,.5,2.89c.07,.42,.22,.76,.43,1.04Z" fill="#9cca3c"/><path d="M29.95,6.21l.71,.02h.04s1.14,1.81,1.14,1.81l1.16,.04-1.32-2.02c.29-.12,.53-.29,.7-.52,.17-.23,.26-.5,.27-.82,0-.31-.06-.58-.21-.83s-.37-.44-.65-.58c-.29-.14-.62-.21-1.01-.23l-1.7-.05-.16,4.92,.97,.03,.06-1.77Zm.07-2.32l.61,.02c.29,0,.53,.08,.71,.2,.19,.13,.27,.32,.26,.57,0,.25-.11,.43-.3,.55-.2,.12-.44,.17-.72,.16l-.61-.02,.05-1.49Z" fill="#9cca3c"/><path d="M34.11,8.12c.3,.29,.67,.47,1.09,.57,.44,.1,.84,.08,1.2-.06,.36-.14,.64-.35,.83-.65l-.69-.64c-.15,.2-.32,.34-.52,.42s-.41,.1-.64,.05c-.25-.06-.45-.17-.61-.35-.16-.17-.27-.4-.33-.67-.06-.27-.05-.57,.02-.89,.07-.32,.19-.59,.36-.81,.17-.22,.36-.37,.58-.46s.46-.1,.7-.05c.23,.05,.42,.16,.56,.32,.14,.16,.24,.36,.29,.6l.9-.28c-.05-.35-.2-.67-.47-.94-.27-.28-.62-.47-1.06-.57-.42-.1-.83-.08-1.23,.04-.4,.13-.74,.35-1.03,.68-.29,.33-.49,.74-.6,1.23-.11,.49-.11,.95,.01,1.37s.33,.78,.64,1.06Z" fill="#9cca3c"/><polygon points="40.34 10.49 40.68 9.71 38.56 8.79 39.05 7.67 40.88 8.46 41.21 7.69 39.38 6.9 39.84 5.83 41.89 6.72 42.22 5.94 39.28 4.67 37.33 9.19 40.34 10.49" fill="#9cca3c"/><path d="M43.9,13.05c.34,.28,.71,.45,1.12,.52,.4,.07,.81,.02,1.21-.15,.41-.17,.77-.45,1.1-.85,.33-.4,.53-.81,.62-1.24,.08-.43,.05-.84-.09-1.22-.15-.38-.39-.72-.73-.99-.34-.28-.71-.45-1.12-.52-.41-.07-.81-.02-1.21,.15s-.77,.45-1.1,.85c-.33,.4-.54,.82-.62,1.25-.08,.43-.06,.83,.09,1.22,.15,.38,.39,.71,.73,.99Zm.18-2.03c.07-.26,.22-.52,.42-.78,.21-.25,.43-.44,.68-.56,.24-.12,.48-.17,.73-.15,.24,.02,.46,.11,.66,.28,.2,.17,.33,.36,.4,.6s.07,.48,0,.74-.21,.52-.42,.77c-.21,.25-.43,.44-.68,.57-.24,.12-.49,.18-.73,.16-.24-.02-.46-.11-.66-.28s-.34-.36-.4-.6c-.07-.23-.06-.48,.01-.74Z" fill="#9cca3c"/><polygon points="46.68 15.64 48.19 14.39 49.47 15.93 50.12 15.39 48.85 13.85 49.82 13.05 51.24 14.77 51.9 14.22 49.85 11.75 46.06 14.89 46.68 15.64" fill="#9cca3c"/><path d="M4.21,26.97l.62-.7c-.2-.15-.34-.32-.43-.51s-.11-.41-.06-.64c.05-.25,.16-.45,.33-.62s.39-.28,.66-.34c.27-.06,.57-.06,.89,0,.33,.07,.6,.18,.82,.34,.22,.16,.38,.35,.47,.57,.09,.22,.11,.45,.06,.7-.05,.23-.15,.42-.31,.57s-.36,.24-.6,.3l.3,.89c.35-.05,.66-.22,.93-.49,.27-.27,.45-.63,.54-1.07,.09-.43,.06-.84-.07-1.23-.13-.4-.37-.73-.71-1.01-.34-.28-.75-.47-1.24-.57-.49-.1-.95-.08-1.37,.04-.42,.13-.77,.35-1.05,.66-.28,.31-.46,.68-.54,1.1-.09,.44-.06,.84,.08,1.2s.37,.63,.67,.81Z" fill="#9cca3c"/><path d="M7.99,29.5l-4.93-1.91v.98s1.13,.41,1.13,.41v1.92s-1.11,.43-1.11,.43v1.04s4.92-2.01,4.92-2.01v-.85Zm-2.97,1.07v-1.3s1.73,.63,1.73,.63l-1.73,.67Z" fill="#9cca3c"/><polygon points="4.3 34.34 8.28 33.6 8.1 32.64 3.26 33.54 3.85 36.7 4.71 36.54 4.3 34.34" fill="#9cca3c"/><path d="M6.63,40.07c-.25-.02-.46-.09-.63-.21-.18-.12-.31-.29-.39-.51-.09-.24-.1-.47-.04-.7,.06-.23,.18-.44,.38-.64,.2-.19,.45-.35,.76-.46,.31-.11,.6-.16,.88-.14,.27,.02,.51,.1,.7,.24s.34,.33,.42,.56c.08,.22,.09,.44,.04,.64-.06,.21-.17,.4-.35,.57l.72,.6c.27-.23,.45-.53,.54-.91,.09-.38,.05-.78-.1-1.2-.15-.41-.39-.75-.71-1.01-.32-.27-.7-.43-1.13-.49s-.89,0-1.36,.17c-.47,.17-.85,.43-1.14,.76s-.47,.7-.55,1.11c-.07,.41-.04,.82,.12,1.23,.16,.42,.39,.75,.7,.97,.31,.23,.64,.34,1,.34l.16-.93Z" fill="#9cca3c"/><rect x="6.01" y="41.15" width="4.92" height=".98" transform="translate(-18.81 9.06) rotate(-28.44)" fill="#9cca3c"/><path d="M13.71,44.94l-.59-.78-2.15,1.63c-.38,.29-.72,.42-1.02,.41-.3-.01-.56-.16-.77-.44-.21-.28-.29-.57-.22-.87,.07-.3,.29-.59,.67-.87l2.15-1.63-.59-.78-2.33,1.77c-.34,.25-.58,.54-.73,.86-.15,.32-.2,.66-.14,1.01,.05,.35,.21,.7,.48,1.05,.26,.34,.55,.59,.88,.74,.32,.15,.66,.2,1.01,.14s.69-.21,1.03-.47l2.34-1.77Z" fill="#9cca3c"/><polygon points="17.27 48.03 14.35 48.93 14.69 45.89 14.09 45.4 10.95 49.19 11.66 49.78 13.69 47.32 13.46 49.57 13.86 49.9 16.01 49.26 13.98 51.7 14.7 52.3 17.84 48.51 17.27 48.03" fill="#9cca3c"/><path d="M17.43,53.94l.9,.38,.82-.88,1.77,.74-.04,1.2,.96,.4,.06-5.31-.79-.33-3.68,3.8Zm3.51-.65l-1.2-.5,1.25-1.35-.06,1.85Z" fill="#9cca3c"/><polygon points="26.49 55.04 24.73 51.41 23.96 51.27 23.06 56.11 23.94 56.27 24.54 53.06 26.3 56.71 27.08 56.85 27.97 52.01 27.08 51.85 26.49 55.04" fill="#9cca3c"/><path d="M31.61,52.26c-.39-.18-.83-.26-1.31-.25l-1.64,.05,.14,4.92,1.64-.05c.48-.01,.92-.12,1.29-.33,.38-.21,.68-.5,.89-.88s.31-.82,.3-1.33c-.01-.51-.14-.95-.37-1.31-.23-.36-.55-.64-.94-.82Zm-.1,3.38c-.27,.29-.68,.44-1.2,.46l-.55,.02-.09-3.26,.55-.02c.52-.01,.93,.12,1.23,.39s.45,.67,.46,1.19c.01,.52-.12,.93-.39,1.22Z" fill="#9cca3c"/><path d="M38.55,51.19c-.23-.19-.5-.3-.82-.34s-.66,0-1.04,.12l-1.62,.51,1.48,4.69,.93-.29-.51-1.6,.69-.22c.37-.12,.68-.28,.92-.5s.4-.46,.47-.74c.08-.28,.07-.58-.03-.88-.1-.31-.26-.56-.49-.75Zm-.59,1.7c-.13,.18-.35,.32-.64,.41l-.58,.18-.48-1.51,.58-.18c.29-.09,.54-.1,.76-.03,.22,.08,.36,.24,.44,.49,.08,.25,.05,.46-.09,.64Z" fill="#9cca3c"/><path d="M43.03,49.2c-.37-.23-.76-.35-1.17-.36-.41,0-.81,.1-1.19,.32-.38,.21-.68,.5-.89,.85-.21,.35-.31,.75-.31,1.18,0,.44,.14,.88,.39,1.33,.25,.45,.56,.8,.93,1.04,.37,.24,.76,.36,1.17,.36,.41,0,.81-.1,1.19-.31s.68-.5,.89-.85c.21-.35,.32-.75,.31-1.18,0-.44-.14-.88-.39-1.34-.25-.45-.56-.79-.93-1.03Zm.19,3.1c-.11,.22-.28,.39-.5,.51-.23,.13-.46,.18-.7,.16-.24-.02-.47-.12-.69-.28s-.41-.39-.57-.68c-.16-.29-.25-.56-.28-.83s.02-.51,.12-.73c.11-.22,.28-.39,.5-.51,.23-.13,.46-.18,.7-.16,.24,.02,.47,.11,.69,.28,.22,.16,.41,.39,.56,.67,.16,.29,.25,.57,.28,.84s-.01,.52-.12,.73Z" fill="#9cca3c"/><polygon points="46.21 46.26 45.66 45.59 42.62 48.14 43.18 48.81 44.32 47.85 46.92 50.95 47.68 50.32 45.07 47.22 46.21 46.26" fill="#9cca3c"/><path d="M46.42,44.66l2.48,4.67,.64-.74-.58-1.05,1.25-1.46,1.13,.4,.67-.79-5.03-1.69-.56,.65Zm2.94,1.12l-.84,.99-.9-1.61,1.74,.62Z" fill="#9cca3c"/><path d="M53.05,41.09c-.27-.15-.52-.21-.76-.18-.24,.04-.45,.12-.64,.25-.19,.14-.41,.32-.65,.55-.17,.16-.31,.29-.42,.38-.11,.09-.22,.15-.34,.18-.11,.03-.23,.02-.33-.04-.14-.08-.23-.21-.25-.38-.02-.17,.03-.35,.13-.54,.12-.21,.27-.36,.46-.44,.18-.08,.39-.1,.61-.07v-.91c-.33-.09-.66-.05-.99,.12-.33,.17-.6,.44-.81,.82-.16,.28-.26,.56-.3,.85-.04,.29,0,.57,.1,.83,.11,.26,.3,.46,.58,.62,.26,.15,.51,.21,.74,.17,.23-.03,.44-.11,.62-.24,.18-.13,.39-.31,.63-.54,.18-.17,.33-.3,.44-.39,.12-.09,.24-.15,.36-.19,.13-.03,.25-.01,.38,.06,.16,.09,.24,.22,.25,.38,.01,.17-.04,.35-.15,.55-.14,.25-.33,.43-.55,.54-.22,.11-.47,.15-.74,.12v.91c.39,.09,.78,.03,1.14-.18s.67-.52,.89-.91c.16-.27,.26-.55,.3-.85,.04-.29,.01-.57-.1-.83-.11-.26-.31-.48-.6-.65Z" fill="#9cca3c"/><path d="M54.63,36.89c-.29-.1-.55-.12-.78-.04-.23,.08-.43,.2-.59,.36-.16,.17-.34,.38-.54,.66-.14,.19-.25,.34-.35,.44-.09,.11-.19,.19-.3,.24-.11,.05-.22,.06-.34,.01-.16-.06-.26-.17-.31-.33-.05-.16-.04-.35,.04-.55,.08-.23,.21-.4,.37-.51,.17-.11,.36-.17,.59-.17l-.16-.9c-.35-.03-.67,.07-.96,.29-.29,.22-.51,.54-.66,.95-.11,.3-.16,.6-.15,.89,.01,.3,.09,.56,.24,.79,.15,.23,.38,.4,.68,.51,.28,.1,.53,.12,.75,.04,.22-.07,.41-.19,.57-.35,.15-.16,.33-.37,.53-.64,.15-.2,.27-.35,.37-.46,.1-.11,.21-.19,.33-.25,.12-.05,.25-.06,.38,0,.17,.06,.27,.17,.32,.33,.04,.16,.02,.35-.05,.57-.1,.27-.25,.48-.45,.62-.2,.15-.44,.23-.71,.25l.16,.9c.41,.02,.77-.11,1.1-.38,.33-.27,.56-.63,.72-1.06,.11-.29,.16-.59,.15-.89,0-.3-.09-.56-.24-.8s-.39-.42-.71-.53Z" fill="#9cca3c"/><rect x="53.42" y="32.77" width=".97" height="4.92" transform="translate(8.01 80.4) rotate(-77.71)" fill="#9cca3c"/><path d="M56.1,29.83c-.3-.19-.66-.29-1.08-.32l-2.93-.19-.06,.97,2.69,.17c.47,.03,.82,.15,1.04,.36,.22,.21,.32,.49,.3,.84-.02,.35-.16,.62-.4,.8-.24,.18-.6,.25-1.08,.22l-2.69-.17-.06,.97,2.93,.19c.42,.03,.79-.03,1.11-.18,.32-.15,.58-.37,.76-.67,.19-.3,.29-.67,.32-1.1,.03-.43-.03-.81-.18-1.13-.15-.32-.37-.58-.67-.76Z" fill="#9cca3c"/><polygon points="51.42 24.64 54.21 25.87 51.98 27.95 52.11 28.71 56.96 27.89 56.81 26.98 53.66 27.51 55.3 25.96 55.22 25.46 53.17 24.53 56.3 24.01 56.15 23.09 51.3 23.91 51.42 24.64" fill="#9cca3c"/><path d="M30,9.74c-11.17,0-20.26,9.09-20.26,20.26s9.09,20.26,20.26,20.26,20.26-9.09,20.26-20.26S41.17,9.74,30,9.74Zm0,39.51c-10.62,0-19.26-8.64-19.26-19.26S19.38,10.74,30,10.74s19.26,8.64,19.26,19.26-8.64,19.26-19.26,19.26Z" fill="#9cca3c"/><path d="M37.19,27.35c-.2,0-.27,.16-.75,.16-.53,0-.8-.46-.8-.99s.25-1.02,.87-1.02c.3,0,.49,.16,.67,.16,.2,0,.33-.18,.33-.36,0-.4-.55-.53-1.02-.53-1.01,0-1.67,.74-1.67,1.76,0,.96,.6,1.76,1.66,1.76,.42,0,1.06-.15,1.06-.57,0-.1-.04-.35-.34-.35Z" fill="#9cca3c"/><path d="M39.72,25.65c-.18,0-.29,.12-.35,.24-.17-.2-.35-.28-.63-.28-.64,0-1.14,.59-1.14,1.33s.5,1.33,1.14,1.33c.28,0,.47-.08,.63-.28,.05,.11,.17,.24,.35,.24,.22,0,.37-.17,.37-.38v-1.81c0-.21-.15-.38-.37-.38Zm-.88,1.91c-.33,0-.51-.28-.51-.62s.18-.62,.51-.62,.51,.28,.51,.62-.18,.62-.51,.62Z" fill="#9cca3c"/><path d="M31.18,40.54c-.46,.04-.92,.02-1.39-.04-.4-.05-.8-.14-1.21-.27-1.56-.5-2.88-1.54-3.72-2.93-.14-.24-.45-.31-.69-.17-.24,.14-.31,.45-.17,.69,.97,1.59,2.48,2.79,4.27,3.36,.46,.15,.93,.25,1.39,.31,.34,.04,.68,.07,1.02,.07,.19,0,.38,0,.57-.02,.28-.02,.48-.26,.46-.54-.02-.28-.27-.48-.54-.46Z" fill="#9cca3c"/><path d="M37.48,21.59c-.56,0-1.09,.11-1.6,.29,0,0,0-.02-.01-.03-.42-.61-.84-1.18-1.25-1.71-.16-.21-.33-.41-.48-.61-1.7-2.12-3.07-3.41-3.13-3.47-.02-.02-.05-.03-.07-.04-.03-.02-.05-.04-.08-.05-.03-.01-.06-.01-.09-.02-.03,0-.06-.02-.09-.02s-.06,0-.09,.02c-.03,0-.06,0-.09,.02-.03,.01-.06,.03-.09,.05-.02,.02-.05,.02-.07,.04-.07,.06-1.7,1.61-3.62,4.08-.55,.7-1.07,1.43-1.55,2.15-.32,.47-.63,.97-.94,1.48-.18,.31-.36,.62-.54,.93-.15,.27-.3,.54-.44,.82-.01,.02-.01,.05-.02,.08-.23-.03-.45-.07-.69-.07-2.75,0-4.99,2.24-4.99,4.99,0,2.2,1.44,4.04,3.41,4.71,0,.05-.02,.1-.01,.15,.07,.61,.2,1.23,.4,1.85,.18,.57,.38,1.06,.6,1.5,1.06,2.09,2.85,3.73,5.03,4.61,.56,.23,1.14,.41,1.72,.52,.66,.13,1.33,.2,1.99,.2s1.33-.07,1.99-.2c.58-.12,1.15-.29,1.72-.52,2.18-.89,3.97-2.52,5.03-4.61,.23-.44,.42-.93,.6-1.5,.25-.78,.39-1.56,.44-2.32,0-.04,.02-.07,.02-.11v-.36s0-.11,0-.12c0-.58-.02-1.19-.09-1.82-.06-.54-.16-1.11-.3-1.68,1.43-.88,2.4-2.44,2.4-4.24,0-2.75-2.24-4.99-4.99-4.99Zm-18.95,8.93c0-2.2,1.79-3.99,3.99-3.99s3.99,1.79,3.99,3.99-1.79,3.99-3.99,3.99-3.99-1.79-3.99-3.99Zm20.93,3.91v.23s-.02,.06-.02,.1c-.03,.71-.17,1.44-.4,2.18-.16,.51-.34,.95-.54,1.35-.96,1.87-2.56,3.34-4.52,4.14-.51,.21-1.03,.36-1.54,.47-.59,.12-1.19,.18-1.79,.18s-1.19-.06-1.79-.18c-.51-.1-1.03-.26-1.54-.47-1.96-.8-3.56-2.27-4.52-4.14-.2-.39-.37-.83-.54-1.35-.16-.5-.26-.99-.33-1.48,.19,.02,.37,.06,.57,.06,2.75,0,4.99-2.24,4.99-4.99,0-2.16-1.39-3.99-3.31-4.68,.11-.22,.23-.44,.35-.65,.17-.31,.34-.61,.52-.9,.3-.5,.61-.98,.92-1.44,.47-.71,.98-1.41,1.52-2.1,1.36-1.76,2.59-3.05,3.17-3.62,.51,.51,1.52,1.57,2.7,3.03,.16,.19,.31,.39,.47,.59,.37,.48,.75,1,1.13,1.54-1.47,.87-2.47,2.45-2.47,4.28,0,2.75,2.24,4.99,4.99,4.99,.59,0,1.14-.12,1.66-.31,.1,.46,.18,.92,.23,1.35,.07,.58,.1,1.15,.09,1.69,0,.02,0,.11,0,.12Zm-1.98-3.87c-2.2,0-3.99-1.79-3.99-3.99s1.79-3.99,3.99-3.99,3.99,1.79,3.99,3.99-1.79,3.99-3.99,3.99Z" fill="#9cca3c"/><path d="M23.61,32.24c.21,0,.4-.13,.4-.38,0-.14-.09-.24-.21-.37l-1-1.08,.91-.92c.08-.08,.15-.19,.15-.31,0-.2-.21-.37-.38-.37-.11,0-.21,.02-.36,.19l-1.05,1.15v-.94c0-.27-.16-.41-.38-.41s-.38,.14-.38,.41v2.61c0,.27,.16,.41,.38,.41s.38-.14,.38-.41v-1.12l1.07,1.2c.12,.14,.27,.32,.47,.32Z" fill="#9cca3c"/><path d="M7.24,20.88c.06,.03,.13,.04,.2,.04,.19,0,.38-.11,.46-.3,.41-.95,.88-1.89,1.4-2.78,.14-.24,.06-.54-.18-.68-.24-.14-.54-.06-.68,.18-.55,.93-1.04,1.91-1.46,2.9-.11,.25,.01,.55,.26,.66Z" fill="#9cca3c"/><path d="M50.81,17.03c-.24,.14-.32,.45-.17,.69,.54,.9,1.02,1.84,1.43,2.8,.08,.19,.27,.3,.46,.3,.07,0,.13-.01,.2-.04,.25-.11,.37-.4,.26-.66-.43-1-.93-1.98-1.49-2.92-.14-.24-.45-.31-.69-.17Z" fill="#9cca3c"/><path d="M30,.5C13.73,.5,.5,13.73,.5,30s13.23,29.5,29.5,29.5,29.5-13.23,29.5-29.5S46.27,.5,30,.5Zm0,58C14.29,58.5,1.5,45.71,1.5,30S14.29,1.5,30,1.5s28.5,12.79,28.5,28.5-12.79,28.5-28.5,28.5Z" fill="#9cca3c"/></svg>