<?xml version="1.0" encoding="utf-8"?>
<!-- Generator: Adobe Illustrator 24.2.0, SVG Export Plug-In . SVG Version: 6.00 Build 0)  -->
<svg version="1.1" id="a" xmlns="http://www.w3.org/2000/svg" xmlns:xlink="http://www.w3.org/1999/xlink" x="0px" y="0px"
	 viewBox="0 0 60 60" style="enable-background:new 0 0 60 60;" xml:space="preserve">
<style type="text/css">
	.st0{fill:#9CCA3C;}
</style>
<g>
	<path class="st0" d="M30.2,52.8l-0.6,0l0.1,3.3l0.6,0c0.5,0,0.9-0.2,1.2-0.5c0.3-0.3,0.4-0.7,0.4-1.2c0-0.5-0.2-0.9-0.5-1.2
		C31.2,53,30.8,52.8,30.2,52.8z"/>
	<polygon class="st0" points="10.4,13.4 11.3,15 12.2,14 	"/>
	<path class="st0" d="M30,1C14,1,1,14,1,30c0,16,13,29,29,29c16,0,29-13,29-29C59,14,46,1,30,1z M56.1,22.9L53,23.6l2.1,0.8l0.1,0.5
		l-1.6,1.6l3.1-0.7l0.2,0.9l-4.8,1l-0.2-0.8l2.1-2.2l-2.8-1.1l-0.2-0.7l4.8-1L56.1,22.9z M52.7,20.8c-0.1,0-0.1,0-0.2,0
		c-0.2,0-0.4-0.1-0.5-0.3c-0.4-1-0.9-1.9-1.4-2.8c-0.1-0.2-0.1-0.5,0.2-0.7c0.2-0.1,0.5-0.1,0.7,0.2c0.6,0.9,1.1,1.9,1.5,2.9
		C53.1,20.4,53,20.7,52.7,20.8z M52.2,14.7l-0.7,0.5l-1.4-1.7l-1,0.8l1.2,1.6l-0.7,0.5l-1.2-1.6L47,16l-0.6-0.8l3.9-3.1L52.2,14.7z
		 M50,30c0,11-9,20-20,20s-20-9-20-20s9-20,20-20S50,19,50,30z M43.4,11.1c0.1-0.4,0.3-0.8,0.6-1.2c0.3-0.4,0.7-0.7,1.1-0.8
		c0.4-0.2,0.8-0.2,1.2-0.1c0.4,0.1,0.8,0.3,1.1,0.5c0.3,0.3,0.6,0.6,0.7,1c0.1,0.4,0.2,0.8,0.1,1.2c-0.1,0.4-0.3,0.8-0.6,1.2
		c-0.3,0.4-0.7,0.7-1.1,0.8c-0.4,0.2-0.8,0.2-1.2,0.1s-0.8-0.3-1.1-0.5s-0.6-0.6-0.7-1C43.4,11.9,43.3,11.5,43.4,11.1z M42.4,6
		l-0.3,0.8l-2-0.9L39.6,7l1.8,0.8l-0.3,0.8l-1.8-0.8l-0.5,1.1l2.1,0.9l-0.3,0.8l-3-1.3l2-4.5L42.4,6z M33.6,5.7
		c0.1-0.5,0.3-0.9,0.6-1.2c0.3-0.3,0.6-0.6,1-0.7c0.4-0.1,0.8-0.1,1.2,0c0.4,0.1,0.8,0.3,1.1,0.6c0.3,0.3,0.4,0.6,0.5,0.9l-0.9,0.3
		c0-0.2-0.1-0.4-0.3-0.6c-0.1-0.2-0.3-0.3-0.6-0.3c-0.2-0.1-0.5,0-0.7,0c-0.2,0.1-0.4,0.2-0.6,0.5s-0.3,0.5-0.4,0.8
		c-0.1,0.3-0.1,0.6,0,0.9c0.1,0.3,0.2,0.5,0.3,0.7c0.2,0.2,0.4,0.3,0.6,0.3c0.2,0.1,0.4,0,0.6,0c0.2-0.1,0.4-0.2,0.5-0.4L37.4,8
		c-0.2,0.3-0.5,0.5-0.8,0.6s-0.8,0.2-1.2,0.1c-0.4-0.1-0.8-0.3-1.1-0.6c-0.3-0.3-0.5-0.6-0.6-1.1C33.5,6.6,33.5,6.2,33.6,5.7z
		 M29.1,3l1.7,0.1c0.4,0,0.7,0.1,1,0.2c0.3,0.1,0.5,0.3,0.7,0.6c0.1,0.2,0.2,0.5,0.2,0.8c0,0.3-0.1,0.6-0.3,0.8
		c-0.2,0.2-0.4,0.4-0.7,0.5l1.3,2l-1.2,0l-1.1-1.8l0,0l-0.7,0L29.9,8l-1,0L29.1,3z M24.2,3.7l0.5,2.7c0.1,0.5,0.2,0.8,0.5,1
		c0.2,0.2,0.5,0.3,0.9,0.2c0.3-0.1,0.6-0.2,0.7-0.5c0.2-0.3,0.2-0.6,0.1-1.1l-0.5-2.7l1-0.2L27.9,6c0.1,0.4,0.1,0.8-0.1,1.1
		c-0.1,0.3-0.3,0.6-0.6,0.8c-0.3,0.2-0.6,0.4-1.1,0.4c-0.4,0.1-0.8,0.1-1.1-0.1s-0.6-0.3-0.8-0.6c-0.2-0.3-0.4-0.6-0.4-1l-0.5-2.9
		L24.2,3.7z M18.5,5.9c0.2-0.3,0.6-0.6,1-0.7s0.8-0.2,1.2-0.2s0.8,0.2,1.1,0.5c0.3,0.3,0.6,0.6,0.8,1.1C22.9,7,23,7.5,22.9,7.9
		c0,0.4-0.2,0.8-0.4,1.1c-0.2,0.3-0.6,0.6-1,0.7C21.1,10,20.7,10,20.3,10c-0.4,0-0.8-0.2-1.1-0.5c-0.3-0.3-0.6-0.7-0.8-1.1
		c-0.2-0.5-0.3-0.9-0.2-1.4C18.1,6.6,18.3,6.2,18.5,5.9z M14.2,8.3c0.2-0.2,0.4-0.5,0.6-0.6c0.4-0.2,0.7-0.4,1.1-0.4
		c0.4,0,0.7,0.1,0.9,0.3l-0.4,0.8c-0.2-0.1-0.4-0.2-0.6-0.2s-0.4,0.1-0.6,0.2c-0.2,0.1-0.3,0.3-0.4,0.4c-0.1,0.2,0,0.3,0.1,0.4
		c0.1,0.1,0.2,0.2,0.3,0.2c0.1,0,0.2,0,0.4,0c0.1,0,0.3-0.1,0.5-0.2c0.3-0.1,0.6-0.2,0.8-0.2c0.2,0,0.5,0,0.7,0s0.4,0.2,0.6,0.5
		c0.2,0.3,0.3,0.6,0.3,0.8c0,0.3-0.1,0.5-0.3,0.8c-0.2,0.2-0.4,0.5-0.6,0.6c-0.4,0.3-0.8,0.4-1.2,0.4c-0.4,0-0.8-0.1-1.1-0.3
		l0.4-0.8c0.2,0.1,0.5,0.2,0.7,0.2c0.2,0,0.5-0.1,0.7-0.2c0.2-0.1,0.3-0.3,0.4-0.4c0.1-0.2,0-0.3-0.1-0.5c-0.1-0.1-0.2-0.2-0.3-0.2
		s-0.3,0-0.4,0s-0.3,0.1-0.6,0.2c-0.3,0.1-0.6,0.2-0.8,0.2c-0.2,0-0.4,0-0.7,0c-0.2-0.1-0.4-0.2-0.6-0.5c-0.2-0.3-0.3-0.5-0.2-0.8
		C13.9,8.8,14,8.5,14.2,8.3z M9.8,12.2l5,1.7l-0.7,0.8L13,14.3l-1.2,1.5l0.6,1l-0.6,0.7l-2.5-4.7L9.8,12.2z M7,20.1
		c0.4-1,0.9-2,1.5-2.9C8.6,17,8.9,16.9,9.1,17s0.3,0.4,0.2,0.7c-0.5,0.9-1,1.8-1.4,2.8c-0.1,0.2-0.3,0.3-0.5,0.3c-0.1,0-0.1,0-0.2,0
		C7,20.7,6.9,20.4,7,20.1z M3.7,23.9c0.1-0.4,0.3-0.8,0.6-1.1c0.3-0.3,0.6-0.5,1.1-0.6c0.4-0.1,0.9-0.1,1.4,0
		c0.5,0.1,0.9,0.3,1.2,0.6c0.3,0.3,0.5,0.6,0.7,1c0.1,0.4,0.1,0.8,0,1.2c-0.1,0.4-0.3,0.8-0.6,1c-0.3,0.3-0.6,0.4-1,0.5l-0.3-0.9
		c0.2,0,0.4-0.1,0.6-0.3c0.2-0.1,0.3-0.3,0.3-0.6c0.1-0.2,0-0.5,0-0.7c-0.1-0.2-0.2-0.4-0.4-0.6c-0.2-0.2-0.5-0.3-0.8-0.4
		c-0.3-0.1-0.6-0.1-0.9,0s-0.5,0.2-0.7,0.3c-0.2,0.2-0.3,0.4-0.4,0.6c-0.1,0.2,0,0.4,0,0.6c0.1,0.2,0.2,0.4,0.4,0.5l-0.7,0.7
		c-0.3-0.2-0.5-0.5-0.6-0.8C3.6,24.7,3.6,24.3,3.7,23.9z M3.1,30.3l1.1-0.4L4.3,28l-1.1-0.5l0-1L8,28.7l0,0.9l-5,1.8L3.1,30.3z
		 M3.2,32.7L8,31.9l0.1,1l-4,0.6l0.3,2.2l-0.9,0.1L3.2,32.7z M4.5,39c-0.1-0.4-0.2-0.8-0.1-1.2C4.5,37.3,4.7,37,5,36.6
		c0.3-0.3,0.7-0.6,1.2-0.7c0.5-0.2,0.9-0.2,1.4-0.1s0.8,0.2,1.1,0.5c0.3,0.3,0.5,0.6,0.7,1c0.1,0.4,0.2,0.8,0.1,1.2
		c-0.1,0.4-0.3,0.7-0.6,0.9l-0.7-0.6c0.2-0.2,0.3-0.4,0.4-0.6c0.1-0.2,0.1-0.4,0-0.6c-0.1-0.2-0.2-0.4-0.4-0.6
		c-0.2-0.1-0.4-0.2-0.7-0.3c-0.3,0-0.6,0-0.9,0.1C6.2,37,6,37.1,5.8,37.3c-0.2,0.2-0.3,0.4-0.4,0.6s-0.1,0.5,0,0.7
		c0.1,0.2,0.2,0.4,0.4,0.5c0.2,0.1,0.4,0.2,0.6,0.2l-0.2,0.9c-0.4,0-0.7-0.1-1-0.4C4.9,39.7,4.7,39.4,4.5,39z M5.8,41.8l4.4-2.2
		l0.4,0.9l-4.4,2.2L5.8,41.8z M9,46.6c-0.3-0.2-0.6-0.4-0.9-0.8c-0.3-0.4-0.4-0.7-0.5-1.1c0-0.4,0-0.7,0.2-1s0.4-0.6,0.7-0.8
		l2.4-1.7l0.6,0.8l-2.2,1.6c-0.4,0.3-0.6,0.6-0.7,0.9s0,0.6,0.2,0.9c0.2,0.3,0.5,0.4,0.8,0.5c0.3,0,0.6-0.1,1-0.4l2.2-1.6l0.6,0.8
		l-2.4,1.7c-0.3,0.2-0.7,0.4-1,0.4C9.7,46.8,9.3,46.8,9,46.6z M13.6,51.4l2.1-2.4l-2.2,0.6l-0.4-0.3l0.3-2.2l-2.1,2.4l-0.7-0.6
		l3.2-3.7l0.6,0.5l-0.4,3l2.9-0.8l0.6,0.5L14.4,52L13.6,51.4z M21.6,55.7l-1-0.4l0-1.2L19,53.4l-0.8,0.9l-0.9-0.4l3.7-3.8l0.8,0.3
		L21.6,55.7z M27,56.8l-0.8-0.1L24.5,53l-0.6,3.2L23,56.1l0.9-4.8l0.8,0.1l1.7,3.6l0.6-3.2l0.9,0.2L27,56.8z M32.7,55.7
		c-0.2,0.4-0.5,0.7-0.9,0.9c-0.4,0.2-0.8,0.3-1.3,0.3l-1.6,0l-0.1-4.9l1.6,0c0.5,0,0.9,0.1,1.3,0.3c0.4,0.2,0.7,0.5,0.9,0.8
		c0.2,0.4,0.4,0.8,0.4,1.3C33,54.9,32.9,55.3,32.7,55.7z M39.3,52.7c-0.1,0.3-0.2,0.5-0.5,0.7c-0.2,0.2-0.5,0.4-0.9,0.5l-0.7,0.2
		l0.5,1.6l-0.9,0.3l-1.5-4.7l1.6-0.5c0.4-0.1,0.7-0.2,1-0.1c0.3,0,0.6,0.1,0.8,0.3c0.2,0.2,0.4,0.4,0.5,0.7
		C39.4,52.2,39.4,52.5,39.3,52.7z M44.3,52.6c-0.2,0.4-0.5,0.6-0.9,0.9c-0.4,0.2-0.8,0.3-1.2,0.3s-0.8-0.1-1.2-0.3
		c-0.4-0.2-0.7-0.6-0.9-1c-0.3-0.4-0.4-0.9-0.4-1.3c0-0.4,0.1-0.8,0.3-1.2c0.2-0.4,0.5-0.6,0.9-0.9s0.8-0.3,1.2-0.3
		c0.4,0,0.8,0.1,1.2,0.3s0.7,0.6,0.9,1c0.3,0.5,0.4,0.9,0.4,1.3C44.6,51.8,44.5,52.2,44.3,52.6z M47.3,50.7l-2.7-3.1l-1.1,1
		l-0.6-0.7l3-2.6l0.6,0.7l-1.1,1L48,50L47.3,50.7z M51.7,46l-1.1-0.4l-1.2,1.5l0.6,1l-0.6,0.8l-2.6-4.6l0.5-0.7l5.1,1.6L51.7,46z
		 M53.8,42.8c-0.2,0.4-0.5,0.7-0.9,0.9c-0.4,0.2-0.7,0.3-1.1,0.2l0-0.9c0.3,0,0.5,0,0.7-0.1c0.2-0.1,0.4-0.3,0.5-0.6
		c0.1-0.2,0.2-0.4,0.1-0.6c0-0.2-0.1-0.3-0.3-0.4c-0.1-0.1-0.3-0.1-0.4,0c-0.1,0-0.2,0.1-0.4,0.2c-0.1,0.1-0.3,0.2-0.4,0.4
		c-0.2,0.2-0.4,0.4-0.6,0.6c-0.2,0.1-0.4,0.2-0.6,0.3c-0.2,0-0.5,0-0.7-0.2c-0.3-0.2-0.5-0.4-0.6-0.6c-0.1-0.3-0.2-0.5-0.1-0.8
		c0-0.3,0.1-0.6,0.3-0.9c0.2-0.4,0.5-0.7,0.8-0.8c0.3-0.2,0.6-0.2,1-0.1l0,0.9c-0.2,0-0.4,0-0.6,0.1c-0.2,0.1-0.3,0.2-0.4,0.4
		C50,41,49.9,41.2,50,41.4s0.1,0.3,0.3,0.4c0.1,0.1,0.2,0.1,0.3,0c0.1,0,0.2-0.1,0.3-0.2c0.1-0.1,0.2-0.2,0.4-0.4
		c0.2-0.2,0.4-0.4,0.6-0.6c0.2-0.1,0.4-0.2,0.6-0.3c0.2,0,0.5,0,0.8,0.2c0.3,0.2,0.5,0.4,0.6,0.6c0.1,0.3,0.2,0.5,0.1,0.8
		S53.9,42.5,53.8,42.8z M55.7,38.4c-0.1,0.4-0.4,0.8-0.7,1.1c-0.3,0.3-0.7,0.4-1.1,0.4L53.8,39c0.3,0,0.5-0.1,0.7-0.3
		c0.2-0.2,0.3-0.4,0.4-0.6c0.1-0.2,0.1-0.4,0-0.6c0-0.2-0.2-0.3-0.3-0.3c-0.1,0-0.3,0-0.4,0c-0.1,0.1-0.2,0.1-0.3,0.3
		c-0.1,0.1-0.2,0.3-0.4,0.5c-0.2,0.3-0.4,0.5-0.5,0.7s-0.3,0.3-0.6,0.4c-0.2,0.1-0.5,0.1-0.8,0c-0.3-0.1-0.5-0.3-0.7-0.5
		c-0.2-0.2-0.2-0.5-0.3-0.8s0-0.6,0.1-0.9c0.1-0.4,0.3-0.7,0.6-1c0.3-0.2,0.6-0.3,0.9-0.3l0.2,0.9c-0.2,0-0.4,0.1-0.6,0.2
		s-0.3,0.3-0.4,0.5c-0.1,0.2-0.1,0.4,0,0.6s0.2,0.3,0.3,0.3c0.1,0,0.2,0,0.3,0c0.1-0.1,0.2-0.1,0.3-0.2c0.1-0.1,0.2-0.3,0.3-0.5
		c0.2-0.3,0.4-0.5,0.5-0.7c0.2-0.2,0.3-0.3,0.6-0.4c0.2-0.1,0.5-0.1,0.8,0c0.3,0.1,0.6,0.3,0.7,0.5c0.2,0.2,0.3,0.5,0.3,0.8
		C55.8,37.8,55.8,38.1,55.7,38.4z M56.4,35.4l-4.8-0.9l0.2-1l4.8,0.9L56.4,35.4z M56,32.5c-0.3,0.2-0.7,0.2-1.1,0.2L52,32.7l0-1
		l2.7,0.1c0.5,0,0.8-0.1,1.1-0.3c0.2-0.2,0.4-0.5,0.4-0.8c0-0.3-0.1-0.6-0.3-0.8c-0.2-0.2-0.6-0.3-1.1-0.3l-2.7-0.1l0-1l2.9,0.1
		c0.4,0,0.8,0.1,1.1,0.3c0.3,0.2,0.5,0.4,0.7,0.7c0.2,0.3,0.2,0.7,0.2,1.1c0,0.4-0.1,0.8-0.3,1.1C56.6,32.2,56.3,32.4,56,32.5z"/>
	<polygon class="st0" points="5,29.6 6.8,29 5.1,28.3 	"/>
	<path class="st0" d="M44.8,12.6c0.2,0.2,0.4,0.3,0.7,0.3c0.2,0,0.5,0,0.7-0.1s0.5-0.3,0.7-0.6c0.2-0.2,0.4-0.5,0.4-0.8
		s0.1-0.5,0-0.7s-0.2-0.4-0.4-0.6s-0.4-0.3-0.7-0.3c-0.2,0-0.5,0-0.7,0.1c-0.2,0.1-0.5,0.3-0.7,0.6c-0.2,0.2-0.4,0.5-0.4,0.8
		s-0.1,0.5,0,0.7S44.6,12.4,44.8,12.6z"/>
	<path class="st0" d="M19.8,8.7C20,8.9,20.2,9,20.4,9s0.5,0,0.7-0.1c0.2-0.1,0.4-0.3,0.6-0.5c0.1-0.2,0.2-0.4,0.2-0.7
		c0-0.3-0.1-0.6-0.2-0.9c-0.1-0.3-0.3-0.5-0.5-0.7C21,6,20.8,5.9,20.6,5.8c-0.2,0-0.5,0-0.7,0.1c-0.2,0.1-0.4,0.3-0.6,0.5
		c-0.1,0.2-0.2,0.4-0.2,0.7c0,0.3,0.1,0.6,0.2,0.9C19.4,8.3,19.6,8.5,19.8,8.7z"/>
	<path class="st0" d="M31.3,5.2c0.2-0.1,0.3-0.3,0.3-0.6c0-0.3-0.1-0.4-0.3-0.6c-0.2-0.1-0.4-0.2-0.7-0.2l-0.6,0l0,1.5l0.6,0
		C30.9,5.4,31.1,5.4,31.3,5.2z"/>
	<polygon class="st0" points="20.8,53.2 20.8,51.4 19.6,52.7 	"/>
	<path class="st0" d="M37.8,51.7c-0.2-0.1-0.5-0.1-0.8,0l-0.6,0.2l0.5,1.5l0.6-0.2c0.3-0.1,0.5-0.2,0.6-0.4c0.1-0.2,0.2-0.4,0.1-0.6
		C38.2,51.9,38,51.8,37.8,51.7z"/>
	<path class="st0" d="M42.8,49.9c-0.2-0.2-0.5-0.3-0.7-0.3c-0.2,0-0.5,0-0.7,0.2c-0.2,0.1-0.4,0.3-0.5,0.5c-0.1,0.2-0.1,0.5-0.1,0.7
		c0,0.3,0.1,0.5,0.3,0.8c0.2,0.3,0.4,0.5,0.6,0.7c0.2,0.2,0.5,0.3,0.7,0.3c0.2,0,0.5,0,0.7-0.2c0.2-0.1,0.4-0.3,0.5-0.5
		c0.1-0.2,0.1-0.5,0.1-0.7c0-0.3-0.1-0.6-0.3-0.8C43.2,50.3,43,50.1,42.8,49.9z"/>
	<polygon class="st0" points="49.7,45.4 48,44.8 48.9,46.4 	"/>
	<path class="st0" d="M31.2,40.4c-0.4,0-0.9,0-1.4,0c-0.4-0.1-0.8-0.1-1.2-0.3c-1.5-0.5-2.8-1.5-3.6-2.9c-0.2-0.3-0.6-0.4-0.9-0.2
		c-0.3,0.2-0.4,0.6-0.2,0.9c1,1.6,2.5,2.8,4.3,3.4c0.5,0.2,0.9,0.3,1.4,0.3c0.3,0,0.7,0.1,1,0.1c0.2,0,0.4,0,0.6,0
		c0.4,0,0.6-0.3,0.6-0.7C31.8,40.6,31.5,40.4,31.2,40.4z"/>
	<path class="st0" d="M37.5,21.4c-0.5,0-1,0.1-1.5,0.3c-0.4-0.6-0.8-1.1-1.2-1.6c-0.2-0.2-0.3-0.4-0.5-0.6c-1.7-2.1-3.1-3.4-3.1-3.5
		c0,0-0.1,0-0.1-0.1c0,0-0.1,0-0.1-0.1c0,0-0.1,0-0.1,0c0,0-0.1,0-0.1,0c0,0-0.1,0-0.1,0c0,0-0.1,0-0.1,0c0,0-0.1,0-0.1,0.1
		c0,0-0.1,0-0.1,0.1c-0.1,0.1-1.7,1.6-3.6,4.1c-0.6,0.7-1.1,1.4-1.6,2.2c-0.3,0.5-0.6,1-0.9,1.5c-0.2,0.3-0.4,0.6-0.5,0.9
		c-0.1,0.3-0.3,0.5-0.4,0.8c-0.2,0-0.4-0.1-0.6-0.1c-2.8,0-5.1,2.3-5.1,5.1c0,2.2,1.4,4.1,3.4,4.8c0,0,0,0,0,0.1
		c0.1,0.6,0.2,1.3,0.4,1.9c0.2,0.6,0.4,1.1,0.6,1.5c1.1,2.1,2.9,3.8,5.1,4.7c0.6,0.2,1.2,0.4,1.7,0.5c0.7,0.1,1.3,0.2,2,0.2
		s1.3-0.1,2-0.2c0.6-0.1,1.2-0.3,1.7-0.5c2.2-0.9,4-2.6,5.1-4.7c0.2-0.5,0.4-1,0.6-1.5c0.2-0.8,0.4-1.6,0.4-2.3c0,0,0-0.1,0-0.1
		c0-0.1,0-0.2,0-0.2l0-0.1c0,0,0-0.1,0-0.1c0-0.6,0-1.2-0.1-1.8c-0.1-0.5-0.2-1-0.3-1.6c1.4-0.9,2.4-2.5,2.4-4.3
		C42.6,23.7,40.3,21.4,37.5,21.4z M18.7,30.5c0-2.1,1.7-3.8,3.8-3.8c2.1,0,3.8,1.7,3.8,3.8c0,2.1-1.7,3.8-3.8,3.8
		C20.4,34.4,18.7,32.6,18.7,30.5z M39.4,34.4L39.4,34.4l-0.1,0.2c0,0,0,0.1,0,0.1c0,0.7-0.2,1.4-0.4,2.1c-0.2,0.5-0.3,0.9-0.5,1.3
		c-0.9,1.8-2.5,3.3-4.4,4.1c-0.5,0.2-1,0.4-1.5,0.5c-0.6,0.1-1.2,0.2-1.8,0.2s-1.2-0.1-1.8-0.2c-0.5-0.1-1-0.3-1.5-0.5
		c-1.9-0.8-3.5-2.2-4.4-4.1c-0.2-0.4-0.4-0.8-0.5-1.3c-0.1-0.4-0.2-0.8-0.3-1.3c0.1,0,0.3,0,0.4,0c2.8,0,5.1-2.3,5.1-5.1
		c0-2.2-1.3-4-3.2-4.8c0.1-0.2,0.2-0.3,0.3-0.5c0.2-0.3,0.3-0.6,0.5-0.9c0.3-0.5,0.6-1,0.9-1.4c0.5-0.7,1-1.4,1.5-2.1
		c1.3-1.7,2.4-2.9,3-3.5c0.5,0.5,1.5,1.6,2.6,2.9c0.2,0.2,0.3,0.4,0.5,0.6c0.3,0.4,0.7,0.9,1,1.4c-1.4,0.9-2.4,2.5-2.4,4.3
		c0,2.8,2.3,5.1,5.1,5.1c0.5,0,1.1-0.1,1.6-0.3c0.1,0.4,0.2,0.8,0.2,1.2c0.1,0.6,0.1,1.1,0.1,1.7l0.2,0
		C39.5,34.3,39.4,34.4,39.4,34.4z M39.9,34.3L39.9,34.3L39.9,34.3L39.9,34.3z M37.5,30.4c-2.1,0-3.8-1.7-3.8-3.8
		c0-2.1,1.7-3.8,3.8-3.8c2.1,0,3.8,1.7,3.8,3.8C41.3,28.7,39.6,30.4,37.5,30.4z"/>
	<path class="st0" d="M37.1,27.4c-0.2,0-0.4,0.2-0.8,0.2c-0.6,0-0.9-0.5-0.9-1c0-0.6,0.3-1.1,0.9-1.1c0.4,0,0.5,0.2,0.7,0.2
		c0.2,0,0.3-0.1,0.3-0.3c0-0.4-0.7-0.5-1-0.5c-1,0-1.6,0.8-1.6,1.7c0,1,0.7,1.7,1.6,1.7c0.3,0,1.1-0.1,1.1-0.6
		C37.4,27.6,37.4,27.4,37.1,27.4z"/>
	<path class="st0" d="M39.8,25.6c-0.2,0-0.3,0.1-0.3,0.3c-0.2-0.2-0.4-0.3-0.6-0.3c-0.6,0-1.1,0.6-1.1,1.3c0,0.8,0.5,1.3,1.1,1.3
		c0.3,0,0.5-0.1,0.6-0.3c0,0.2,0.1,0.3,0.3,0.3c0.3,0,0.3-0.3,0.3-0.4v-1.7C40.1,25.9,40.1,25.6,39.8,25.6z M38.9,27.6
		c-0.4,0-0.5-0.4-0.5-0.7c0-0.3,0.2-0.7,0.5-0.7c0.4,0,0.5,0.4,0.5,0.7C39.4,27.3,39.2,27.6,38.9,27.6z"/>
	<path class="st0" d="M23.6,32.2c0.2,0,0.4-0.1,0.4-0.3c0-0.1-0.1-0.2-0.2-0.4l-1.1-1.1l0.9-0.9c0.2-0.2,0.2-0.3,0.2-0.4
		c0-0.2-0.2-0.3-0.3-0.3c-0.1,0-0.2,0.1-0.3,0.1L22,30.2v-1c0-0.2-0.2-0.4-0.4-0.4c-0.2,0-0.4,0.2-0.4,0.4v2.7
		c0,0.2,0.2,0.3,0.4,0.3c0.2,0,0.4-0.2,0.4-0.3v-1.2l1.2,1.3C23.4,32.2,23.4,32.2,23.6,32.2z"/>
</g>
</svg>
