<?xml version="1.0" encoding="utf-8"?>
<!-- Generator: Adobe Illustrator 24.2.0, SVG Export Plug-In . SVG Version: 6.00 Build 0)  -->
<svg version="1.1" id="a" xmlns="http://www.w3.org/2000/svg" xmlns:xlink="http://www.w3.org/1999/xlink" x="0px" y="0px"
	 viewBox="0 0 60 60" style="enable-background:new 0 0 60 60;" xml:space="preserve">
<style type="text/css">
	.st0{fill:#9CCA3C;}
</style>
<g>
	<path class="st0" d="M26.5,52.6l-0.6-0.1L25.7,54l0.6,0.1c0.3,0,0.5,0,0.7-0.1c0.2-0.1,0.3-0.3,0.4-0.5c0-0.3,0-0.5-0.2-0.6
		C27.1,52.7,26.8,52.6,26.5,52.6z"/>
	<path class="st0" d="M18.6,9.2c0.2,0.2,0.4,0.3,0.7,0.3s0.5,0,0.7-0.1c0.2-0.1,0.4-0.3,0.5-0.5s0.2-0.5,0.2-0.7
		c0-0.3-0.1-0.6-0.2-0.9c-0.1-0.3-0.3-0.5-0.5-0.7c-0.2-0.2-0.4-0.3-0.7-0.3c-0.2,0-0.5,0-0.7,0.1c-0.2,0.1-0.4,0.3-0.5,0.5
		c-0.1,0.2-0.2,0.5-0.2,0.7s0.1,0.6,0.2,0.8C18.3,8.8,18.4,9.1,18.6,9.2z"/>
	<path class="st0" d="M32.9,5.7c0-0.5-0.1-0.9-0.3-1.2S31.9,4,31.4,3.9l-0.5,0l-0.2,3.3l0.5,0c0.5,0,0.9-0.1,1.2-0.3
		C32.7,6.6,32.8,6.2,32.9,5.7z"/>
	<path class="st0" d="M12.4,44.8c0-0.2-0.1-0.4-0.3-0.7l-0.4-0.5l-1.2,0.9l0.4,0.5c0.2,0.2,0.4,0.4,0.6,0.4c0.2,0.1,0.4,0,0.6-0.1
		C12.3,45.3,12.4,45.1,12.4,44.8z"/>
	<polygon class="st0" points="26.1,4.6 25.8,6.4 27,6.2 	"/>
	<path class="st0" d="M30,1C14,1,1,14,1,30c0,16,13,29,29,29c16,0,29-13,29-29C59,14,46,1,30,1z M48.6,14.1c0.2-0.2,0.5-0.1,0.7,0.1
		C52.9,18.6,55,24.2,55,30c0,2.5-0.4,5-1.1,7.4c-0.1,0.2-0.3,0.4-0.5,0.4c0,0-0.1,0-0.1,0c-0.3-0.1-0.4-0.4-0.3-0.6
		c0.7-2.3,1.1-4.7,1.1-7.1c0-5.6-1.9-11-5.5-15.2C48.3,14.5,48.3,14.2,48.6,14.1z M50,30c0,11-9,20-20,20s-20-9-20-20s9-20,20-20
		S50,19,50,30z M46.9,9.1c0.4,0.3,0.6,0.7,0.8,1.1s0.2,0.8,0.2,1.2c-0.1,0.4-0.3,0.8-0.6,1.2c-0.3,0.4-0.7,0.7-1.1,0.8
		c-0.4,0.1-0.8,0.2-1.2,0.1c-0.4-0.1-0.8-0.3-1.2-0.6l-1.3-1L45.7,8L46.9,9.1z M44.2,7.1l-0.4,0.7l-2-1.1l-0.5,1L43,8.7l-0.4,0.7
		l-1.8-0.9l-0.6,1.1l2,1.1l-0.4,0.8L39,9.9l2.3-4.3L44.2,7.1z M35.8,3.6l1.6,0.5c0.5,0.1,0.8,0.4,1.2,0.6C38.8,5,39,5.4,39.2,5.8
		c0.1,0.4,0.1,0.9-0.1,1.4c-0.1,0.5-0.4,0.9-0.7,1.2s-0.7,0.5-1.1,0.6c-0.4,0.1-0.9,0-1.3-0.1l-1.6-0.5L35.8,3.6z M29.9,3l1.6,0.1
		c0.5,0,0.9,0.2,1.3,0.4c0.4,0.2,0.7,0.5,0.9,0.9c0.2,0.4,0.3,0.8,0.2,1.3c0,0.5-0.2,0.9-0.4,1.3c-0.2,0.4-0.6,0.6-1,0.8
		C32.1,8,31.7,8.1,31.2,8l-1.6-0.1L29.9,3z M25.5,3.4l0.8-0.1l2.7,4.6l-1,0.2l-0.6-1l-1.9,0.3l-0.2,1.2l-1,0.1L25.5,3.4z M17.3,6.5
		c0.2-0.3,0.5-0.6,0.9-0.8c0.4-0.2,0.8-0.3,1.2-0.2c0.4,0,0.8,0.2,1.1,0.4c0.4,0.3,0.6,0.6,0.9,1.1c0.2,0.5,0.3,0.9,0.3,1.4
		c0,0.4-0.1,0.8-0.4,1.2c-0.2,0.3-0.5,0.6-0.9,0.8c-0.4,0.2-0.8,0.3-1.2,0.2c-0.4,0-0.8-0.2-1.1-0.4c-0.4-0.3-0.6-0.6-0.9-1.1
		c-0.2-0.5-0.3-0.9-0.3-1.4C16.9,7.2,17,6.8,17.3,6.5z M12.1,9.8l3.9,1l-2-2.5l0.7-0.6l3.1,3.8l-0.6,0.5l-3.9-1l2,2.5l-0.7,0.6
		l-3.1-3.8L12.1,9.8z M10.7,14.1c0.2-0.2,0.5-0.2,0.7-0.1c0.2,0.2,0.2,0.5,0.1,0.7C8,19,6,24.4,6,30c0,2.5,0.4,5,1.2,7.4
		C7.3,37.7,7.1,38,6.9,38c-0.1,0-0.1,0-0.2,0c-0.2,0-0.4-0.1-0.5-0.3C5.4,35.2,5,32.6,5,30C5,24.2,7.1,18.6,10.7,14.1z M7.3,41.1
		l-1.5,0.8L5.3,41l4.4-2.3l0.8,1.5c0.2,0.3,0.3,0.7,0.3,1c0,0.3,0,0.6-0.2,0.9c-0.1,0.3-0.4,0.5-0.6,0.6c-0.3,0.2-0.6,0.2-0.9,0.2
		c-0.3,0-0.6-0.1-0.8-0.3c-0.3-0.2-0.5-0.5-0.7-0.8L7.3,41.1z M10.5,48.7l-0.7-0.9l0.6-2l0,0l-0.4-0.6l-1.4,1.1l-0.6-0.8l3.8-3.1
		l1.1,1.3c0.2,0.3,0.4,0.6,0.5,0.9s0.1,0.6,0,0.9c-0.1,0.3-0.3,0.5-0.5,0.7c-0.2,0.2-0.5,0.3-0.8,0.3c-0.3,0-0.6,0-0.8-0.2
		L10.5,48.7z M14.5,51.1L14,51.7l-2.5-2.1l3.2-3.8l2.5,2.1l-0.5,0.6l-1.7-1.4L14.1,48l1.5,1.3L15.1,50l-1.5-1.3l-0.8,0.9L14.5,51.1z
		 M19.2,50.3c-0.1-0.2-0.2-0.3-0.4-0.5c-0.2-0.1-0.4-0.2-0.5-0.1c-0.2,0-0.3,0.1-0.4,0.2c-0.1,0.1-0.1,0.2,0,0.3
		c0,0.1,0.1,0.2,0.2,0.3c0.1,0.1,0.2,0.2,0.4,0.4c0.2,0.2,0.4,0.5,0.6,0.6c0.1,0.2,0.2,0.4,0.3,0.6c0,0.2,0,0.5-0.2,0.8
		c-0.2,0.3-0.4,0.5-0.6,0.6c-0.3,0.1-0.5,0.1-0.8,0.1c-0.3,0-0.6-0.1-0.8-0.3c-0.4-0.2-0.7-0.5-0.9-0.9s-0.3-0.8-0.2-1.1l0.9,0
		c0,0.3,0,0.5,0.1,0.7c0.1,0.2,0.3,0.4,0.5,0.5c0.2,0.1,0.4,0.2,0.6,0.2c0.2,0,0.3-0.1,0.4-0.3c0.1-0.1,0.1-0.3,0.1-0.4
		S18,52,17.9,51.9c-0.1-0.1-0.2-0.3-0.4-0.4c-0.2-0.2-0.4-0.4-0.5-0.6c-0.1-0.2-0.2-0.4-0.2-0.6c0-0.2,0-0.5,0.2-0.7
		c0.2-0.3,0.4-0.5,0.6-0.6c0.3-0.1,0.5-0.1,0.8-0.1s0.6,0.1,0.9,0.3c0.4,0.2,0.7,0.5,0.8,0.8c0.2,0.3,0.2,0.7,0.1,1l-0.9,0
		C19.3,50.7,19.3,50.5,19.2,50.3z M24,52.1l-2.1-0.7l-0.4,1.1l1.9,0.7l-0.3,0.8l-1.9-0.7l-0.4,1.2l2.2,0.8L22.8,56l-3.1-1.1l1.6-4.6
		l3,1.1L24,52.1z M28.5,53.6c0,0.3-0.2,0.6-0.4,0.8c-0.2,0.2-0.4,0.4-0.7,0.4l1.1,2.2l-1.1-0.2l-0.9-1.9l0,0l-0.7-0.1l-0.2,1.8
		l-1-0.1l0.7-4.9l1.7,0.2c0.4,0.1,0.7,0.2,1,0.3c0.3,0.2,0.5,0.4,0.6,0.6C28.5,53,28.5,53.3,28.5,53.6z M31.9,56.9l-0.8,0l-2.3-4.8
		L30,52l1.5,3.5l1.1-3.6l1-0.1L31.9,56.9z M37.7,55.8l-0.7-1l-1.9,0.5L35,56.5l-0.9,0.2l0.7-5.2l0.8-0.2l3.1,4.3L37.7,55.8z
		 M40.4,54.9l-1.6-3.7l-1.4,0.6L37,50.9l3.6-1.6l0.4,0.8l-1.4,0.6l1.6,3.7L40.4,54.9z M43.8,53.1L41.2,49l0.8-0.5l2.6,4.2L43.8,53.1
		z M47.3,50.6l-4.7-2.4l0.8-0.7l3.3,1.8l-1.4-3.5l0.8-0.7l1.8,5L47.3,50.6z M50.3,47.7l-3.9-3l2-2.5l0.7,0.5l-1.4,1.8l0.9,0.7
		l1.2-1.6l0.7,0.5l-1.2,1.6l1,0.8l1.4-1.8l0.7,0.5L50.3,47.7z M53.9,42.5c-0.2,0.4-0.5,0.7-0.9,0.9c-0.4,0.2-0.7,0.3-1.1,0.2l0-0.9
		c0.3,0,0.5,0,0.7-0.1c0.2-0.1,0.4-0.3,0.5-0.6c0.1-0.2,0.2-0.4,0.1-0.6c0-0.2-0.1-0.3-0.3-0.4c-0.1-0.1-0.3-0.1-0.4,0
		c-0.1,0-0.2,0.1-0.4,0.2c-0.1,0.1-0.3,0.2-0.4,0.4c-0.2,0.2-0.4,0.4-0.6,0.6c-0.2,0.1-0.4,0.2-0.6,0.3c-0.2,0-0.5,0-0.7-0.1
		c-0.3-0.1-0.5-0.3-0.6-0.6s-0.2-0.5-0.1-0.8c0-0.3,0.1-0.6,0.3-0.9c0.2-0.4,0.5-0.7,0.8-0.9c0.3-0.2,0.6-0.2,1-0.2l0,0.9
		c-0.2,0-0.4,0-0.6,0.1s-0.3,0.2-0.4,0.5c-0.1,0.2-0.1,0.4-0.1,0.5c0,0.2,0.1,0.3,0.3,0.4c0.1,0.1,0.2,0.1,0.3,0
		c0.1,0,0.2-0.1,0.3-0.2c0.1-0.1,0.2-0.2,0.4-0.4c0.2-0.2,0.4-0.4,0.6-0.6s0.4-0.2,0.6-0.3c0.2,0,0.5,0,0.8,0.1
		c0.3,0.2,0.5,0.4,0.6,0.6c0.1,0.3,0.2,0.5,0.1,0.8C54.2,41.9,54.1,42.2,53.9,42.5z"/>
	<path class="st0" d="M37.4,7.9c0.4-0.2,0.6-0.5,0.8-1C38.3,6.4,38.2,6,38,5.6c-0.2-0.4-0.5-0.6-1-0.8l-0.5-0.2l-0.9,3.1L36.1,8
		C36.6,8.1,37,8.1,37.4,7.9z"/>
	<path class="st0" d="M45.4,12.6c0.4,0,0.8-0.3,1.1-0.7c0.3-0.4,0.5-0.8,0.4-1.2c0-0.4-0.3-0.8-0.7-1.1l-0.4-0.4l-2.1,2.5l0.4,0.4
		C44.6,12.5,45,12.6,45.4,12.6z"/>
	<path class="st0" d="M8.8,41.8c0.2,0.1,0.4,0.1,0.7,0c0.2-0.1,0.4-0.3,0.4-0.5s0-0.5-0.2-0.7L9.4,40L8,40.7l0.3,0.5
		C8.4,41.5,8.6,41.7,8.8,41.8z"/>
	<polygon class="st0" points="35.3,54.4 36.5,54.1 35.5,52.6 	"/>
	<path class="st0" d="M42.2,22.6l-3.8,4.5c-2.5-6.5-8.2-11-8.5-11.3c-0.5-0.4-1.1-0.3-1.6,0c-1,0.8-9.7,8.4-9.7,17.3
		c0,5.8,4.7,10.5,10.5,10.5S39.7,39,39.7,33.2c0-1.6-0.3-3.2-0.7-4.7l4.3-5.1c0.2-0.3,0.2-0.7-0.1-0.9
		C42.9,22.3,42.5,22.3,42.2,22.6z M29.2,42.4c-5.1,0-9.2-4.1-9.2-9.2c0-8.3,8.3-15.5,9.2-16.3c0.3,0.2,6.1,4.9,8.3,11.3l-6,7.1
		l-6.3-5.9c-0.3-0.2-0.7-0.2-0.9,0c-0.2,0.3-0.2,0.7,0,0.9l6.8,6.4c0.1,0.1,0.3,0.2,0.4,0.2c0,0,0,0,0,0c0.2,0,0.3-0.1,0.5-0.2
		l5.9-7c0.3,1.1,0.4,2.3,0.4,3.5C38.4,38.3,34.2,42.4,29.2,42.4z"/>
</g>
</svg>
