<?xml version="1.0" encoding="UTF-8"?><svg id="a" xmlns="http://www.w3.org/2000/svg" viewBox="0 0 60 60"><polygon points="15.3 13.58 13.26 11.04 17.17 12.08 17.79 11.58 14.69 7.75 13.99 8.32 16.03 10.85 12.13 9.82 11.52 10.31 14.61 14.14 15.3 13.58" fill="#9cca3c"/><path d="M18.09,10.08c.35,.26,.74,.4,1.15,.43,.41,.03,.81-.05,1.21-.25,.4-.19,.71-.46,.94-.8s.36-.73,.38-1.17-.08-.89-.31-1.36c-.22-.46-.51-.82-.87-1.08-.36-.26-.74-.4-1.15-.43s-.81,.05-1.21,.25c-.39,.19-.71,.46-.94,.8-.23,.34-.36,.73-.37,1.16-.02,.44,.09,.89,.31,1.35,.23,.47,.52,.83,.87,1.09Zm0-3.11c.12-.21,.3-.37,.53-.49,.23-.11,.47-.15,.71-.12,.24,.04,.46,.14,.67,.32,.21,.18,.38,.41,.53,.71,.14,.29,.22,.58,.23,.85,.01,.27-.04,.52-.16,.73-.12,.21-.3,.37-.53,.49-.23,.11-.47,.15-.71,.12-.24-.04-.46-.14-.67-.32-.21-.18-.38-.41-.53-.71-.14-.29-.22-.58-.23-.85,0-.27,.05-.51,.16-.72Z" fill="#9cca3c"/><path d="M25.6,7.27l1.9-.28,.59,1.05,1.02-.15-2.69-4.58-.84,.13-1.19,5.15,.96-.14,.25-1.17Zm.56-2.67l.9,1.61-1.28,.19,.38-1.8Z" fill="#9cca3c"/><path d="M32.54,7.82c.4-.17,.72-.43,.97-.79s.39-.79,.43-1.3-.05-.96-.24-1.34c-.2-.38-.48-.69-.86-.91-.37-.22-.8-.35-1.28-.38l-1.64-.11-.34,4.91,1.64,.11c.48,.03,.92-.03,1.32-.2Zm-1.93-.68l.23-3.25,.55,.04c.52,.04,.92,.21,1.18,.51,.26,.3,.38,.71,.34,1.23-.04,.52-.21,.92-.51,1.18-.3,.26-.72,.37-1.24,.34l-.55-.04Z" fill="#9cca3c"/><path d="M37.3,8.9c.42-.08,.8-.26,1.12-.55s.55-.68,.7-1.17c.15-.49,.17-.94,.05-1.36-.11-.42-.32-.78-.64-1.07-.32-.3-.71-.51-1.16-.65l-1.57-.47-1.41,4.72,1.57,.47c.46,.14,.91,.17,1.33,.09Zm-.8-4.21l.53,.16c.5,.15,.85,.4,1.04,.75s.21,.78,.07,1.27c-.15,.5-.4,.85-.75,1.04-.35,.19-.78,.21-1.29,.06l-.53-.16,.93-3.13Z" fill="#9cca3c"/><polygon points="41.94 11.43 42.35 10.68 40.31 9.59 40.89 8.51 42.65 9.45 43.05 8.71 41.29 7.77 41.84 6.75 43.81 7.8 44.21 7.06 41.38 5.54 39.05 9.88 41.94 11.43" fill="#9cca3c"/><path d="M43.81,12.86c.37,.31,.77,.51,1.19,.61,.42,.1,.84,.07,1.25-.07,.41-.14,.78-.41,1.11-.8,.33-.39,.52-.8,.59-1.23,.06-.43,0-.84-.17-1.24s-.45-.75-.81-1.05l-1.26-1.05-3.15,3.78,1.26,1.05Zm2.11-3.57l.42,.35c.4,.33,.62,.7,.66,1.1,.04,.4-.11,.8-.44,1.2-.34,.4-.7,.62-1.1,.66-.4,.04-.8-.12-1.21-.45l-.42-.35,2.09-2.5Z" fill="#9cca3c"/><path d="M8.29,42.56c.25,.2,.52,.31,.81,.34,.29,.03,.58-.03,.86-.18,.29-.15,.51-.35,.65-.61,.14-.25,.21-.54,.19-.86s-.11-.65-.29-1l-.79-1.5-4.36,2.28,.45,.86,1.49-.78,.33,.64c.18,.34,.4,.62,.65,.81Zm1.16-2.57l.28,.54c.14,.27,.2,.52,.16,.75-.04,.23-.17,.4-.4,.52-.23,.12-.45,.13-.65,.03-.2-.1-.37-.29-.51-.56l-.28-.54,1.41-.74Z" fill="#9cca3c"/><path d="M12.79,46.23c.24-.19,.41-.43,.49-.7,.09-.27,.09-.56,0-.87-.08-.31-.24-.61-.49-.91l-1.07-1.32-3.83,3.09,.61,.76,1.38-1.11,.45,.55,.03,.03-.62,2.04,.73,.91,.67-2.32c.28,.15,.56,.21,.85,.19,.29-.02,.55-.13,.8-.33Zm-1.27-.68c-.22-.07-.41-.22-.59-.44l-.38-.48,1.16-.94,.38,.48c.18,.23,.29,.45,.31,.67,.02,.22-.06,.41-.26,.57-.2,.16-.4,.2-.62,.13Z" fill="#9cca3c"/><polygon points="15.11 49.96 15.66 49.31 14.13 48.03 14.87 47.14 16.58 48.58 17.13 47.93 14.67 45.87 11.5 49.63 14.01 51.74 14.56 51.09 12.8 49.61 13.59 48.67 15.11 49.96" fill="#9cca3c"/><path d="M20.18,50.9c.09-.34,.05-.67-.12-.99-.17-.33-.45-.59-.82-.81-.28-.16-.56-.26-.86-.3-.29-.04-.57,0-.83,.1-.25,.11-.46,.3-.62,.58-.15,.26-.21,.51-.17,.74,.03,.23,.11,.44,.25,.62,.13,.18,.31,.39,.54,.63,.17,.18,.3,.33,.39,.44,.09,.11,.16,.24,.19,.36,.03,.13,.01,.25-.06,.38-.09,.16-.22,.24-.38,.26-.17,.01-.35-.04-.55-.15-.25-.14-.43-.32-.54-.55-.11-.22-.15-.47-.12-.74h-.91c-.09,.4-.03,.78,.19,1.15,.21,.37,.52,.66,.92,.89,.27,.16,.55,.26,.85,.3,.29,.04,.57,0,.83-.1,.26-.11,.48-.31,.64-.6,.15-.27,.21-.52,.17-.76-.04-.24-.12-.45-.26-.64-.14-.19-.32-.4-.55-.64-.16-.17-.29-.31-.38-.42-.09-.11-.15-.22-.18-.34-.03-.11-.02-.23,.04-.33,.08-.14,.21-.23,.38-.25,.17-.02,.35,.02,.54,.13,.21,.12,.36,.27,.44,.46,.08,.18,.1,.39,.07,.61h.91Z" fill="#9cca3c"/><polygon points="19.68 54.93 22.77 56.01 23.06 55.2 20.88 54.44 21.28 53.29 23.17 53.95 23.44 53.15 21.56 52.49 21.94 51.4 24.05 52.14 24.33 51.34 21.3 50.28 19.68 54.93" fill="#9cca3c"/><path d="M27.78,52.11c-.27-.17-.6-.28-.98-.33l-1.69-.24-.69,4.87,.96,.14,.25-1.76,.71,.1h.04s.94,1.92,.94,1.92l1.15,.17-1.09-2.15c.31-.08,.56-.23,.75-.44s.31-.47,.36-.79c.04-.31,0-.59-.12-.85-.12-.26-.32-.47-.59-.64Zm-.68,1.86c-.21,.1-.45,.12-.73,.08l-.61-.09,.21-1.48,.61,.09c.29,.04,.52,.13,.69,.28,.17,.15,.24,.35,.2,.6-.04,.25-.16,.42-.36,.52Z" fill="#9cca3c"/><polygon points="31.5 55.52 29.98 52.04 28.88 52.1 31.14 56.91 31.96 56.86 33.6 51.84 32.56 51.9 31.5 55.52" fill="#9cca3c"/><path d="M34.82,51.49l-.7,5.24,.95-.23,.14-1.19,1.86-.46,.69,.99,1-.25-3.11-4.31-.83,.2Zm.48,2.94l.21-1.83,1.05,1.52-1.26,.31Z" fill="#9cca3c"/><polygon points="41.03 50.15 40.67 49.35 37.05 50.95 37.4 51.75 38.76 51.15 40.4 54.86 41.29 54.46 39.66 50.75 41.03 50.15" fill="#9cca3c"/><rect x="42.41" y="48.34" width=".98" height="4.92" transform="translate(-20.35 30.29) rotate(-31.86)" fill="#9cca3c"/><polygon points="45.37 45.81 46.73 49.33 43.41 47.5 42.57 48.22 47.29 50.65 47.92 50.11 46.16 45.13 45.37 45.81" fill="#9cca3c"/><polygon points="50.24 46.46 49.27 45.7 50.5 44.13 49.84 43.61 48.61 45.19 47.7 44.48 49.07 42.71 48.4 42.19 46.43 44.72 50.31 47.75 52.33 45.16 51.66 44.64 50.24 46.46" fill="#9cca3c"/><path d="M53.48,40.16c-.27-.14-.53-.19-.77-.15-.24,.04-.45,.14-.63,.28-.18,.14-.39,.33-.62,.58-.16,.17-.3,.3-.41,.39-.11,.09-.22,.16-.33,.2-.11,.04-.22,.03-.33-.03-.15-.08-.23-.2-.26-.37s.01-.35,.11-.54c.11-.21,.26-.37,.44-.45s.38-.12,.61-.09l-.03-.91c-.34-.08-.67-.02-.99,.16-.32,.18-.58,.47-.78,.85-.15,.28-.24,.57-.27,.87-.03,.3,.01,.57,.13,.82,.12,.25,.32,.45,.6,.6,.27,.14,.51,.19,.74,.15,.23-.04,.43-.13,.61-.27,.17-.14,.38-.32,.61-.56,.17-.18,.32-.31,.43-.41,.11-.1,.23-.16,.36-.2,.12-.04,.25-.02,.38,.04,.16,.08,.25,.21,.27,.37s-.02,.35-.13,.56c-.13,.25-.31,.44-.53,.56s-.46,.17-.74,.15l.03,.91c.4,.07,.78,0,1.14-.23,.36-.23,.64-.54,.86-.95,.14-.28,.23-.56,.27-.86,.03-.29-.01-.57-.13-.83-.12-.26-.33-.46-.63-.62Z" fill="#9cca3c"/><path d="M6.72,38.06c.05,0,.1,0,.15-.02,.26-.08,.41-.37,.32-.63-.77-2.38-1.17-4.88-1.17-7.41,0-5.55,1.94-10.97,5.47-15.25,.18-.21,.15-.53-.07-.7-.21-.17-.53-.15-.7,.07-3.68,4.46-5.7,10.1-5.7,15.88,0,2.64,.41,5.23,1.22,7.72,.07,.21,.26,.35,.48,.35Z" fill="#9cca3c"/><path d="M53.97,30c0,2.43-.36,4.83-1.08,7.13-.08,.26,.07,.54,.33,.63,.05,.02,.1,.02,.15,.02,.21,0,.41-.14,.48-.35,.74-2.39,1.12-4.89,1.12-7.42,0-5.79-2.02-11.43-5.7-15.88-.18-.21-.49-.24-.7-.07s-.24,.49-.07,.7c3.53,4.28,5.47,9.69,5.47,15.25Z" fill="#9cca3c"/><path d="M30,.5C13.73,.5,.5,13.73,.5,30s13.23,29.5,29.5,29.5,29.5-13.23,29.5-29.5S46.27,.5,30,.5Zm0,58C14.29,58.5,1.5,45.71,1.5,30S14.29,1.5,30,1.5s28.5,12.79,28.5,28.5-12.79,28.5-28.5,28.5Z" fill="#9cca3c"/><path d="M30,9.74c-11.17,0-20.26,9.09-20.26,20.26s9.09,20.26,20.26,20.26,20.26-9.09,20.26-20.26S41.17,9.74,30,9.74Zm0,39.51c-10.62,0-19.26-8.64-19.26-19.26S19.38,10.74,30,10.74s19.26,8.64,19.26,19.26-8.64,19.26-19.26,19.26Z" fill="#9cca3c"/><path d="M42.36,22.67l-3.98,4.7c-2.48-6.55-8.22-11.17-8.54-11.43-.42-.31-.99-.3-1.4,.04-.99,.83-9.64,8.36-9.64,17.21,0,5.71,4.65,10.36,10.36,10.36s10.36-4.65,10.36-10.36c0-1.65-.29-3.23-.76-4.73l4.36-5.15c.18-.21,.15-.53-.06-.71-.21-.18-.52-.15-.71,.06Zm-13.2,19.88c-5.16,0-9.36-4.2-9.36-9.36,0-8.4,8.33-15.65,9.28-16.45,.02-.02,.05-.03,.08-.03,.03,0,.05,0,.07,.02,.31,.24,6.17,4.95,8.42,11.49l-6.2,7.32-6.4-6.03c-.2-.19-.52-.18-.71,.02-.19,.2-.18,.52,.02,.71l6.79,6.39c.09,.09,.22,.14,.34,.14,0,0,.02,0,.03,0,.14,0,.26-.07,.35-.18l6.11-7.22c.33,1.22,.53,2.49,.53,3.81,0,5.16-4.2,9.36-9.36,9.36Z" fill="#9cca3c"/></svg>