<?xml version="1.0" encoding="UTF-8"?><svg id="a" xmlns="http://www.w3.org/2000/svg" viewBox="0 0 60 60"><path d="M30,.5C13.73,.5,.5,13.73,.5,30s13.23,29.5,29.5,29.5,29.5-13.23,29.5-29.5S46.27,.5,30,.5Zm0,58C14.29,58.5,1.5,45.71,1.5,30S14.29,1.5,30,1.5s28.5,12.79,28.5,28.5-12.79,28.5-28.5,28.5Z" fill="#9cca3c"/><path d="M50.26,30c0-11.17-9.09-20.26-20.26-20.26S9.74,18.83,9.74,30s9.09,20.26,20.26,20.26,20.26-9.09,20.26-20.26Zm-39.51,0c0-10.62,8.64-19.26,19.26-19.26s19.26,8.64,19.26,19.26-8.64,19.26-19.26,19.26S10.74,40.62,10.74,30Z" fill="#9cca3c"/><path d="M27.74,40.54c-.46,.04-.92,.02-1.39-.04-.4-.05-.8-.14-1.21-.27-1.56-.5-2.88-1.54-3.72-2.93-.14-.24-.45-.31-.69-.17-.24,.14-.31,.45-.17,.69,.97,1.59,2.48,2.79,4.27,3.36,.46,.15,.93,.25,1.39,.31,.34,.04,.68,.07,1.02,.07,.19,0,.38,0,.57-.02,.28-.02,.48-.26,.46-.54-.02-.28-.27-.48-.54-.46Z" fill="#9cca3c"/><path d="M35.96,38.73c.23-.44,.42-.93,.6-1.5,.13-.41,.23-.82,.3-1.23l1.61,.83c-.24,.68-.2,1.41,.11,2.06,.46,.98,1.44,1.56,2.46,1.55,.39,0,.78-.08,1.16-.26,1.35-.64,1.93-2.27,1.29-3.62-.31-.66-.86-1.15-1.54-1.4-.68-.24-1.42-.21-2.08,.1-.35,.17-.65,.4-.9,.69l-1.98-1.03s0-.03,0-.04c0-.03,.01-.07,.02-.1,0-.07,0-.15,0-.22v-.14s0-.12,0-.13c0-.59-.02-1.2-.09-1.82-.03-.23-.06-.46-.1-.69-.11-.7-.28-1.41-.51-2.18-.32-1.07-.74-2.18-1.27-3.29-.09-.2-.19-.4-.29-.6-.28-.56-.6-1.13-.93-1.69l1.92-2.89c.35,.16,.72,.25,1.12,.25,.18,0,.36-.02,.54-.05,1.47-.3,2.42-1.73,2.13-3.2h0c-.3-1.47-1.74-2.42-3.2-2.12-.71,.14-1.32,.56-1.73,1.16-.4,.6-.54,1.33-.4,2.04,.11,.53,.37,.99,.72,1.35l-1.68,2.53c-.63-.99-1.31-1.99-2.07-2.96-.16-.21-.32-.41-.48-.61-1.7-2.12-3.08-3.41-3.13-3.47-.02-.02-.05-.03-.07-.04-.03-.02-.05-.04-.09-.05-.03-.01-.06-.01-.09-.02-.03,0-.06-.02-.1-.02s-.06,0-.1,.02c-.03,0-.06,0-.09,.02-.03,.01-.06,.03-.09,.05-.02,.02-.05,.02-.07,.04-.07,.06-1.7,1.61-3.61,4.08-.93,1.2-1.77,2.42-2.5,3.63-.18,.31-.36,.62-.54,.93-.93,1.67-1.63,3.33-2.11,4.92-.3,1.03-.5,1.97-.6,2.87-.07,.62-.1,1.23-.1,1.85,0,0,0,.1,0,.11v.12c0,.07,0,.15,0,.22,0,.03,0,.07,.02,.1,.04,.77,.19,1.55,.44,2.33,.18,.57,.37,1.06,.6,1.5,1.06,2.09,2.85,3.73,5.03,4.61,.56,.23,1.14,.41,1.72,.52,.66,.13,1.33,.2,1.99,.2s1.33-.07,1.99-.2c.58-.12,1.15-.29,1.72-.52,2.18-.89,3.97-2.53,5.03-4.61Zm3.46-1.58c.15-.43,.47-.78,.88-.97,.23-.11,.48-.17,.73-.17,.2,0,.39,.03,.58,.1,.43,.16,.78,.47,.97,.88,.41,.86,.04,1.88-.82,2.29-.85,.41-1.88,.04-2.29-.82-.2-.41-.22-.88-.06-1.31Zm-2.92-2.83h.02s-.02,0-.02,0h0Zm-1.07-16.6c.25-.38,.64-.64,1.09-.73,.11-.02,.23-.03,.34-.03,.8,0,1.52,.56,1.68,1.38,.19,.93-.42,1.84-1.34,2.02-.93,.19-1.84-.42-2.02-1.34-.09-.45,0-.91,.25-1.29Zm-1.57,8.44c.1,.19,.19,.38,.28,.58,.5,1.06,.91,2.12,1.21,3.15,.22,.73,.37,1.41,.48,2.06,.03,.21,.06,.43,.09,.65,.07,.58,.1,1.14,.09,1.69v.12s0,0,0,0l-2.82-1.46s0-.02,.01-.03c.38-1.05,.32-2.19-.16-3.2-.39-.83-1.03-1.46-1.78-1.87l1.93-2.91c.23,.4,.46,.8,.66,1.2Zm-1.6,6.44c-.29,.8-.87,1.44-1.64,1.81-1.59,.75-3.49,.07-4.24-1.52-.36-.77-.41-1.63-.12-2.44,.29-.8,.87-1.44,1.64-1.81,.44-.21,.9-.31,1.36-.31,1.19,0,2.34,.67,2.88,1.82,.36,.77,.41,1.63,.12,2.44Zm-3.26,10.27c-.59,.12-1.19,.18-1.79,.18s-1.19-.06-1.79-.18c-.51-.1-1.03-.26-1.54-.47-1.96-.8-3.57-2.27-4.52-4.14-.2-.39-.38-.83-.54-1.35-.23-.73-.36-1.47-.4-2.18,0-.03,0-.06-.01-.09v-.23s0-.13,0-.13c0-.54,.02-1.11,.09-1.69,.1-.85,.28-1.74,.57-2.71,.45-1.53,1.13-3.11,2.02-4.72,.17-.31,.34-.61,.52-.9,.71-1.18,1.53-2.37,2.43-3.53,1.36-1.76,2.59-3.05,3.17-3.62,.51,.51,1.52,1.57,2.7,3.03,.15,.19,.31,.39,.47,.6,.83,1.07,1.59,2.17,2.26,3.26l-2.33,3.5c-.92-.24-1.92-.19-2.84,.25-2.09,.99-2.98,3.49-1.99,5.57,.71,1.51,2.22,2.4,3.79,2.4,.6,0,1.21-.13,1.78-.4,.69-.33,1.26-.84,1.68-1.46l3.18,1.64c-.07,.47-.16,.94-.31,1.42-.16,.51-.34,.95-.54,1.35-.96,1.87-2.56,3.34-4.52,4.14-.51,.21-1.03,.36-1.54,.47Z" fill="#9cca3c"/><path d="M13.65,47.59c-4.87-4.53-7.66-10.94-7.66-17.59,0-3.68,.81-7.22,2.41-10.5,.13-.28,.28-.55,.42-.82,.13-.24,.04-.55-.2-.68-.24-.13-.55-.04-.68,.2-.15,.28-.3,.57-.44,.86-1.67,3.42-2.51,7.1-2.51,10.94,0,6.92,2.91,13.6,7.98,18.32,.21,.19,.42,.38,.63,.56,.09,.08,.21,.12,.33,.12,.14,0,.28-.06,.38-.17,.18-.21,.16-.52-.05-.71-.21-.18-.41-.36-.6-.54Z" fill="#9cca3c"/><path d="M52.5,19.06c-.09-.18-.18-.36-.27-.53l-.14-.27c-.13-.25-.43-.33-.68-.21-.24,.13-.34,.43-.21,.68l.13,.25c.09,.17,.17,.34,.26,.51,1.6,3.29,2.41,6.82,2.41,10.5,0,6.41-2.5,12.44-7.03,16.98-.42,.42-.86,.83-1.32,1.22-.21,.18-.23,.5-.05,.71,.1,.12,.24,.17,.38,.17,.12,0,.23-.04,.33-.12,.47-.4,.93-.83,1.37-1.27,4.72-4.72,7.33-11,7.33-17.68,0-3.84-.85-7.52-2.51-10.94Z" fill="#9cca3c"/><path d="M11.99,17.27l-.61-1.03,1.21-1.49,1.14,.37,.65-.8-5.08-1.55-.54,.66,2.61,4.6,.61-.76Zm-2.01-3.37l1.76,.57-.82,1.01-.94-1.58Z" fill="#9cca3c"/><path d="M14.44,10.61c.22,.07,.44,.08,.66,.04,.22-.04,.48-.12,.8-.22,.23-.08,.42-.14,.57-.17s.28-.04,.41-.02c.13,.02,.24,.09,.32,.21,.1,.15,.13,.3,.07,.45-.06,.16-.18,.3-.37,.44-.23,.17-.47,.25-.72,.26-.25,0-.49-.06-.72-.21l-.39,.83c.32,.25,.7,.35,1.12,.31,.42-.04,.82-.19,1.19-.45,.26-.18,.47-.39,.63-.64,.16-.25,.25-.51,.26-.8,.01-.29-.08-.56-.28-.84-.18-.25-.38-.41-.62-.48-.23-.07-.46-.08-.69-.04s-.5,.12-.82,.23c-.22,.08-.4,.13-.54,.16-.14,.03-.26,.04-.38,.02-.12-.02-.21-.08-.29-.18-.1-.14-.12-.28-.06-.44,.05-.16,.17-.31,.35-.43,.2-.14,.4-.21,.6-.2s.39,.07,.58,.19l.39-.83c-.27-.22-.58-.32-.95-.31-.37,.02-.73,.15-1.08,.4-.26,.18-.47,.4-.63,.65s-.25,.51-.26,.79c0,.28,.08,.55,.26,.81,.17,.25,.37,.4,.59,.47Z" fill="#9cca3c"/><path d="M18.92,9.61c.34,.27,.72,.43,1.13,.47,.41,.04,.81-.02,1.22-.2,.4-.18,.73-.43,.97-.76,.25-.33,.39-.71,.42-1.15s-.05-.89-.25-1.37c-.21-.47-.48-.84-.83-1.12-.34-.27-.72-.43-1.13-.47s-.81,.02-1.22,.2c-.4,.18-.73,.43-.97,.76-.25,.33-.39,.71-.42,1.15-.04,.44,.05,.89,.25,1.36,.21,.48,.48,.85,.83,1.12Zm.12-3.11c.13-.21,.31-.36,.55-.46,.24-.1,.48-.13,.71-.09,.24,.05,.46,.16,.66,.35s.36,.43,.5,.73c.13,.3,.2,.59,.19,.86,0,.27-.06,.51-.19,.72s-.31,.36-.55,.46c-.24,.1-.48,.13-.71,.09-.24-.05-.46-.16-.66-.35-.2-.19-.37-.43-.5-.73-.13-.3-.2-.59-.19-.86,0-.27,.07-.51,.19-.71Z" fill="#9cca3c"/><path d="M24.04,7.81c.22,.28,.5,.47,.84,.58,.34,.11,.72,.12,1.15,.04,.42-.08,.77-.23,1.05-.45s.47-.5,.58-.84c.11-.34,.12-.71,.05-1.13l-.53-2.88-.96,.18,.49,2.65c.08,.47,.05,.83-.1,1.1-.15,.26-.4,.43-.74,.49-.35,.06-.64,0-.87-.2-.23-.19-.39-.52-.48-.99l-.49-2.65-.96,.18,.53,2.88c.08,.42,.22,.76,.44,1.04Z" fill="#9cca3c"/><path d="M29.95,6.21l.71,.02h.04s1.14,1.81,1.14,1.81l1.16,.04-1.32-2.02c.29-.12,.53-.29,.7-.52,.17-.23,.26-.5,.27-.82,0-.31-.06-.59-.21-.83-.15-.24-.37-.44-.66-.58-.29-.14-.62-.21-1.01-.23l-1.7-.05-.16,4.92,.97,.03,.06-1.77Zm.07-2.32l.61,.02c.29,0,.53,.08,.71,.2,.18,.13,.27,.32,.26,.57,0,.25-.11,.43-.3,.55s-.43,.17-.72,.16l-.61-.02,.05-1.49Z" fill="#9cca3c"/><path d="M34.32,8.16c.3,.29,.66,.48,1.09,.58,.44,.1,.84,.09,1.2-.04,.36-.13,.64-.35,.84-.64l-.68-.64c-.15,.19-.33,.33-.52,.42-.2,.08-.41,.1-.64,.04-.24-.06-.45-.17-.61-.35-.16-.18-.27-.4-.32-.67-.05-.27-.04-.57,.04-.89,.08-.32,.2-.59,.37-.81,.17-.22,.36-.37,.59-.45,.22-.09,.46-.1,.7-.04,.23,.05,.42,.16,.56,.32,.14,.16,.23,.36,.28,.61l.9-.27c-.04-.35-.19-.67-.46-.95-.27-.28-.62-.47-1.05-.58-.42-.1-.83-.09-1.23,.03-.4,.12-.75,.35-1.04,.67-.29,.33-.49,.74-.61,1.22-.11,.49-.11,.95,0,1.37,.12,.43,.32,.78,.62,1.07Z" fill="#9cca3c"/><polygon points="40.69 10.68 41.05 9.9 38.95 8.95 39.45 7.83 41.27 8.66 41.62 7.9 39.8 7.07 40.28 6.02 42.31 6.94 42.66 6.17 39.74 4.84 37.71 9.32 40.69 10.68" fill="#9cca3c"/><path d="M44.53,13.58c.33,.29,.69,.48,1.1,.56,.4,.08,.81,.05,1.22-.1,.41-.15,.79-.42,1.13-.81,.34-.39,.56-.79,.66-1.22s.08-.83-.05-1.22c-.13-.39-.36-.73-.69-1.02s-.69-.48-1.1-.56c-.4-.08-.81-.05-1.22,.1-.41,.15-.79,.42-1.13,.81-.34,.39-.57,.8-.67,1.22-.1,.42-.08,.83,.04,1.22,.13,.39,.36,.73,.69,1.02Zm.25-2.02c.08-.26,.23-.51,.45-.76,.22-.25,.45-.42,.7-.54,.25-.11,.49-.16,.73-.12,.24,.03,.46,.13,.65,.3,.19,.17,.32,.38,.38,.61s.05,.48-.04,.74c-.08,.26-.23,.51-.45,.76s-.45,.42-.7,.54c-.25,.12-.49,.16-.73,.13-.24-.03-.46-.13-.65-.3-.2-.17-.32-.38-.38-.61s-.05-.48,.04-.74Z" fill="#9cca3c"/><polygon points="47.33 16.43 48.9 15.25 50.1 16.85 50.78 16.34 49.58 14.74 50.58 13.99 51.92 15.77 52.61 15.26 50.68 12.69 46.75 15.65 47.33 16.43" fill="#9cca3c"/><polygon points="20.03 49.67 17.14 52.1 17.8 48.37 16.85 47.8 16.08 53.06 16.79 53.48 20.93 50.2 20.03 49.67" fill="#9cca3c"/><rect x="18.63" y="52.31" width="4.92" height=".97" transform="translate(-35.76 53.24) rotate(-68.68)" fill="#9cca3c"/><polygon points="26.85 51.87 22.99 50.96 22.79 51.81 24.24 52.15 23.31 56.09 24.27 56.32 25.2 52.38 26.65 52.72 26.85 51.87" fill="#9cca3c"/><path d="M28.23,51.94l-2.21,4.8,.97,.06,.48-1.1,1.91,.11,.36,1.15,1.03,.06-1.7-5.03-.85-.05Zm-.41,2.95l.74-1.69,.56,1.76-1.3-.08Z" fill="#9cca3c"/><polygon points="35.56 51.37 34.36 54.17 32.26 51.96 31.5 52.09 32.36 56.94 33.27 56.77 32.71 53.64 34.28 55.26 34.78 55.17 35.69 53.12 36.24 56.24 37.16 56.08 36.29 51.24 35.56 51.37" fill="#9cca3c"/><rect x="38.02" y="50.49" width=".98" height="4.92" transform="translate(-16.01 16.71) rotate(-20.36)" fill="#9cca3c"/><polygon points="41.86 48.58 43.47 51.41 39.78 49.76 39.1 50.15 41.53 54.42 42.31 53.98 40.7 51.15 44.39 52.8 45.08 52.41 42.65 48.13 41.86 48.58" fill="#9cca3c"/></svg>