<?xml version="1.0" encoding="utf-8"?>
<!-- Generator: Adobe Illustrator 24.2.0, SVG Export Plug-In . SVG Version: 6.00 Build 0)  -->
<svg version="1.1" id="a" xmlns="http://www.w3.org/2000/svg" xmlns:xlink="http://www.w3.org/1999/xlink" x="0px" y="0px"
	 viewBox="0 0 60 60" style="enable-background:new 0 0 60 60;" xml:space="preserve">
<style type="text/css">
	.st0{fill:#9CCA3C;}
</style>
<g>
	<path class="st0" d="M31.3,5.2c0.2-0.1,0.3-0.3,0.3-0.6c0-0.3-0.1-0.4-0.3-0.6C31.2,4,31,3.9,30.7,3.9l-0.6,0l0,1.5l0.6,0
		C30.9,5.4,31.1,5.4,31.3,5.2z"/>
	<path class="st0" d="M19.6,8.8C19.8,9,20,9.1,20.2,9.2c0.2,0,0.5,0,0.7-0.1c0.2-0.1,0.4-0.3,0.5-0.5s0.2-0.4,0.2-0.7
		c0-0.3-0.1-0.6-0.2-0.9c-0.1-0.3-0.3-0.5-0.5-0.7S20.6,6,20.3,6c-0.2,0-0.5,0-0.7,0.1c-0.2,0.1-0.4,0.3-0.6,0.5
		c-0.1,0.2-0.2,0.4-0.2,0.7c0,0.3,0.1,0.6,0.2,0.9C19.2,8.4,19.4,8.6,19.6,8.8z"/>
	<polygon class="st0" points="10,13.9 10.9,15.5 11.8,14.5 	"/>
	<path class="st0" d="M30,1C14,1,1,14,1,30c0,16,13,29,29,29c16,0,29-13,29-29C59,14,46,1,30,1z M50.7,12.7l1.9,2.6l-0.7,0.5
		L50.6,14l-1,0.8l1.2,1.6l-0.7,0.5l-1.2-1.6l-1.6,1.2l-0.6-0.8L50.7,12.7z M43.8,11.3c0.1-0.4,0.3-0.8,0.7-1.2
		c0.3-0.4,0.7-0.7,1.1-0.8c0.4-0.2,0.8-0.2,1.2-0.1c0.4,0.1,0.8,0.3,1.1,0.6s0.6,0.6,0.7,1c0.1,0.4,0.1,0.8,0,1.2
		c-0.1,0.4-0.3,0.8-0.7,1.2c-0.3,0.4-0.7,0.7-1.1,0.8c-0.4,0.2-0.8,0.2-1.2,0.1c-0.4-0.1-0.8-0.3-1.1-0.6c-0.3-0.3-0.6-0.6-0.7-1
		C43.7,12.2,43.7,11.8,43.8,11.3z M42.7,6.2l-0.4,0.8l-2-0.9l-0.5,1.1l1.8,0.8l-0.3,0.8l-1.8-0.8L39,8.9l2.1,1l-0.4,0.8l-3-1.4
		l2-4.5L42.7,6.2z M33.7,5.7c0.1-0.5,0.3-0.9,0.6-1.2c0.3-0.3,0.6-0.6,1-0.7s0.8-0.1,1.2,0c0.4,0.1,0.8,0.3,1.1,0.6
		c0.3,0.3,0.4,0.6,0.5,0.9l-0.9,0.3c0-0.2-0.1-0.4-0.3-0.6c-0.1-0.2-0.3-0.3-0.6-0.3c-0.2-0.1-0.5,0-0.7,0s-0.4,0.2-0.6,0.5
		c-0.2,0.2-0.3,0.5-0.4,0.8c-0.1,0.3-0.1,0.6,0,0.9c0.1,0.3,0.2,0.5,0.3,0.7c0.2,0.2,0.4,0.3,0.6,0.4c0.2,0.1,0.4,0,0.6,0
		c0.2-0.1,0.4-0.2,0.5-0.4l0.7,0.6c-0.2,0.3-0.5,0.5-0.8,0.6c-0.4,0.1-0.8,0.1-1.2,0c-0.4-0.1-0.8-0.3-1.1-0.6
		c-0.3-0.3-0.5-0.6-0.6-1.1C33.6,6.7,33.6,6.2,33.7,5.7z M29.1,3l1.7,0.1c0.4,0,0.7,0.1,1,0.2c0.3,0.1,0.5,0.3,0.7,0.6
		s0.2,0.5,0.2,0.8c0,0.3-0.1,0.6-0.3,0.8c-0.2,0.2-0.4,0.4-0.7,0.5l1.3,2l-1.2,0l-1.1-1.8l0,0l-0.7,0L29.9,8l-1,0L29.1,3z M24,3.7
		l0.5,2.7c0.1,0.5,0.2,0.8,0.5,1c0.2,0.2,0.5,0.3,0.9,0.2c0.3-0.1,0.6-0.2,0.7-0.5s0.2-0.6,0.1-1.1l-0.5-2.7l1-0.2L27.7,6
		c0.1,0.4,0.1,0.8,0,1.1S27.4,7.8,27.1,8c-0.3,0.2-0.6,0.4-1.1,0.5c-0.4,0.1-0.8,0.1-1.2,0c-0.3-0.1-0.6-0.3-0.8-0.6
		c-0.2-0.3-0.4-0.6-0.4-1l-0.5-2.9L24,3.7z M18.3,6c0.2-0.3,0.6-0.6,1-0.8C19.7,5,20.1,5,20.5,5s0.8,0.2,1.1,0.5
		c0.3,0.3,0.6,0.6,0.8,1.1c0.2,0.5,0.3,0.9,0.3,1.4s-0.2,0.8-0.4,1.1c-0.2,0.3-0.6,0.6-1,0.8c-0.4,0.2-0.8,0.2-1.2,0.2
		c-0.4,0-0.8-0.2-1.1-0.5c-0.3-0.3-0.6-0.6-0.8-1.1c-0.2-0.5-0.3-0.9-0.3-1.4C17.9,6.7,18,6.3,18.3,6z M13.9,8.5
		c0.2-0.2,0.4-0.5,0.6-0.6c0.4-0.3,0.7-0.4,1.1-0.4c0.4,0,0.7,0.1,1,0.3l-0.4,0.8c-0.2-0.1-0.4-0.2-0.6-0.2c-0.2,0-0.4,0.1-0.6,0.2
		c-0.2,0.1-0.3,0.3-0.3,0.4c-0.1,0.2,0,0.3,0.1,0.4c0.1,0.1,0.2,0.2,0.3,0.2c0.1,0,0.2,0,0.4,0c0.1,0,0.3-0.1,0.5-0.2
		c0.3-0.1,0.6-0.2,0.8-0.2s0.5,0,0.7,0c0.2,0.1,0.4,0.2,0.6,0.5c0.2,0.3,0.3,0.6,0.3,0.8c0,0.3-0.1,0.6-0.3,0.8
		c-0.2,0.2-0.4,0.5-0.6,0.6c-0.4,0.3-0.8,0.4-1.2,0.5c-0.4,0-0.8-0.1-1.1-0.3l0.4-0.8c0.2,0.1,0.5,0.2,0.7,0.2s0.5-0.1,0.7-0.3
		c0.2-0.1,0.3-0.3,0.4-0.4c0.1-0.2,0-0.3-0.1-0.5c-0.1-0.1-0.2-0.2-0.3-0.2c-0.1,0-0.3,0-0.4,0s-0.3,0.1-0.6,0.2
		c-0.3,0.1-0.6,0.2-0.8,0.2c-0.2,0-0.4,0-0.7,0c-0.2-0.1-0.4-0.2-0.6-0.5c-0.2-0.3-0.3-0.5-0.3-0.8S13.7,8.8,13.9,8.5z M9.3,12.8
		l5.1,1.5l-0.7,0.8l-1.1-0.4l-1.2,1.5l0.6,1L11.4,18l-2.6-4.6L9.3,12.8z M14.3,49c-0.1,0.1-0.2,0.2-0.4,0.2c-0.1,0-0.2,0-0.3-0.1
		c-0.2-0.2-0.4-0.4-0.6-0.6c-5.1-4.7-8-11.4-8-18.3c0-3.8,0.8-7.5,2.5-10.9c0.1-0.3,0.3-0.6,0.4-0.9c0.1-0.2,0.4-0.3,0.7-0.2
		c0.2,0.1,0.3,0.4,0.2,0.7c-0.1,0.3-0.3,0.5-0.4,0.8C6.8,22.9,6,26.5,6,30.1c0,6.6,2.8,13.1,7.7,17.6c0.2,0.2,0.4,0.4,0.6,0.5
		C14.5,48.5,14.5,48.8,14.3,49z M10,30c0-11,9-20,20-20s20,9,20,20c0,11-9,20-20,20S10,41,10,30z M16.1,53.1l0.8-5.3l1,0.6l-0.7,3.7
		l2.9-2.4l0.9,0.5l-4.1,3.3L16.1,53.1z M20.6,55.3l-0.9-0.4l1.8-4.6l0.9,0.4L20.6,55.3z M24.3,56.3l-1-0.2l0.9-3.9l-1.5-0.3L23,51
		l3.9,0.9l-0.2,0.8l-1.5-0.3L24.3,56.3z M29.8,57l-0.4-1.1l-1.9-0.1L27,56.8l-1-0.1l2.2-4.8l0.9,0l1.7,5L29.8,57z M36.2,56.2
		l-0.6-3.1l-0.9,2.1l-0.5,0.1l-1.6-1.6l0.6,3.1l-0.9,0.2l-0.9-4.8l0.8-0.1l2.1,2.2l1.2-2.8l0.7-0.1l0.9,4.8L36.2,56.2z M38.9,55.4
		l-1.7-4.6l0.9-0.3l1.7,4.6L38.9,55.4z M44.4,52.8l-3.7-1.6l1.6,2.8l-0.8,0.4l-2.4-4.3l0.7-0.4l3.7,1.6l-1.6-2.8l0.8-0.4l2.4,4.3
		L44.4,52.8z M47.7,47.8c-0.4,0.4-0.9,0.9-1.4,1.3c-0.1,0.1-0.2,0.1-0.3,0.1c-0.1,0-0.3-0.1-0.4-0.2c-0.2-0.2-0.2-0.5,0.1-0.7
		c0.5-0.4,0.9-0.8,1.3-1.2c4.5-4.5,7-10.6,7-17c0-3.7-0.8-7.2-2.4-10.5c-0.1-0.2-0.2-0.3-0.3-0.5l-0.1-0.3c-0.1-0.2,0-0.5,0.2-0.7
		c0.2-0.1,0.5,0,0.7,0.2l0.1,0.3c0.1,0.2,0.2,0.4,0.3,0.5c1.7,3.4,2.5,7.1,2.5,10.9C55,36.8,52.4,43.1,47.7,47.8z"/>
	<path class="st0" d="M45.1,12.9c0.2,0.2,0.4,0.3,0.7,0.3c0.2,0,0.5,0,0.7-0.1c0.2-0.1,0.5-0.3,0.7-0.5c0.2-0.2,0.4-0.5,0.5-0.8
		c0.1-0.3,0.1-0.5,0-0.7s-0.2-0.4-0.4-0.6c-0.2-0.2-0.4-0.3-0.7-0.3c-0.2,0-0.5,0-0.7,0.1c-0.2,0.1-0.5,0.3-0.7,0.5
		c-0.2,0.2-0.4,0.5-0.5,0.8c-0.1,0.3-0.1,0.5,0,0.7C44.8,12.5,45,12.7,45.1,12.9z"/>
	<polygon class="st0" points="27.8,54.9 29.1,55 28.6,53.2 	"/>
	<path class="st0" d="M27.7,40.5c-0.4,0-0.9,0-1.4,0c-0.4-0.1-0.8-0.1-1.2-0.3c-1.5-0.5-2.8-1.5-3.6-2.9c-0.2-0.3-0.6-0.4-0.9-0.2
		c-0.3,0.2-0.4,0.6-0.2,0.9c1,1.6,2.5,2.8,4.3,3.4c0.5,0.2,0.9,0.3,1.4,0.3c0.3,0,0.7,0.1,1,0.1c0.2,0,0.4,0,0.6,0
		c0.4,0,0.6-0.3,0.6-0.7C28.4,40.8,28.1,40.5,27.7,40.5z"/>
	<path class="st0" d="M36.1,38.9c0.2-0.5,0.4-1,0.6-1.5c0.1-0.4,0.2-0.7,0.3-1.1l1.3,0.7c-0.2,0.7-0.2,1.4,0.1,2.1
		c0.3,0.7,0.9,1.2,1.6,1.5c0.3,0.1,0.6,0.2,1,0.2c0.4,0,0.8-0.1,1.2-0.3c0.7-0.3,1.2-0.9,1.5-1.6c0.3-0.7,0.2-1.5-0.1-2.2
		c0,0,0,0,0,0c-0.7-1.4-2.4-2-3.8-1.4c-0.3,0.2-0.6,0.4-0.9,0.6L37.2,35c0,0,0,0,0,0c0-0.1,0-0.2,0-0.2l0-0.1c0,0,0-0.1,0-0.1
		c0-0.6,0-1.2-0.1-1.8c0-0.2-0.1-0.5-0.1-0.7c-0.1-0.7-0.3-1.4-0.5-2.2c-0.3-1.1-0.7-2.2-1.3-3.3c-0.1-0.2-0.2-0.4-0.3-0.6
		c-0.3-0.5-0.6-1.1-0.9-1.6l1.8-2.7c0.3,0.1,0.7,0.2,1.1,0.2c0.2,0,0.4,0,0.6-0.1c0.8-0.2,1.4-0.6,1.8-1.2c0.4-0.6,0.6-1.4,0.4-2.2
		c-0.2-0.8-0.6-1.4-1.2-1.8c-0.6-0.4-1.4-0.6-2.2-0.4c-1.5,0.3-2.6,1.8-2.2,3.4c0.1,0.5,0.3,1,0.7,1.3L33.3,23
		c-0.6-0.9-1.2-1.9-2-2.8c-0.2-0.2-0.3-0.4-0.5-0.6c-1.7-2.1-3.1-3.4-3.1-3.5c0,0-0.1,0-0.1-0.1c0,0-0.1,0-0.1-0.1c0,0-0.1,0-0.1,0
		c0,0-0.1,0-0.1,0c0,0-0.1,0-0.1,0c0,0-0.1,0-0.1,0c0,0-0.1,0-0.1,0.1c0,0-0.1,0-0.1,0.1c-0.1,0.1-1.7,1.6-3.6,4.1
		c-0.9,1.2-1.8,2.4-2.5,3.6c-0.2,0.3-0.4,0.6-0.5,0.9c-0.9,1.7-1.6,3.3-2.1,5c-0.3,1-0.5,2-0.6,2.9c-0.1,0.6-0.1,1.2-0.1,1.9
		c0,0,0,0.1,0,0.1l0,0.3c0,0,0,0.1,0,0.1c0,0.8,0.2,1.6,0.4,2.4c0.2,0.6,0.4,1.1,0.6,1.5c1.1,2.1,2.9,3.8,5.1,4.7
		c0.6,0.2,1.2,0.4,1.7,0.5c0.7,0.1,1.3,0.2,2,0.2s1.3-0.1,2-0.2c0.6-0.1,1.2-0.3,1.7-0.5C33.2,42.7,35,41.1,36.1,38.9z M39.6,37.4
		c0.1-0.4,0.4-0.7,0.8-0.9c0.2-0.1,0.4-0.2,0.7-0.2c0.6,0,1.2,0.3,1.4,0.9c0.2,0.4,0.2,0.8,0.1,1.2c-0.1,0.4-0.4,0.7-0.8,0.9
		c-0.4,0.2-0.8,0.2-1.2,0.1c-0.4-0.1-0.7-0.4-0.9-0.8C39.4,38.2,39.4,37.7,39.6,37.4z M36.6,17.3c0.1,0,0.2,0,0.3,0
		c0.7,0,1.4,0.5,1.5,1.3c0.1,0.4,0,0.8-0.2,1.2s-0.6,0.6-1,0.7c-0.8,0.2-1.7-0.4-1.8-1.2C35.2,18.3,35.7,17.5,36.6,17.3z M33.7,26.4
		c0.1,0.2,0.2,0.4,0.3,0.6c0.5,1.1,0.9,2.1,1.2,3.1c0.2,0.7,0.4,1.4,0.5,2c0,0.2,0.1,0.4,0.1,0.6c0.1,0.5,0.1,1.1,0.1,1.6L33.4,33
		c0.3-1,0.3-2.2-0.2-3.2c-0.4-0.8-1-1.4-1.7-1.9l1.7-2.6C33.4,25.7,33.6,26.1,33.7,26.4z M30.6,34.4c-1.5,0.7-3.3,0.1-4-1.4
		c-0.7-1.5-0.1-3.3,1.4-4c0.4-0.2,0.9-0.3,1.3-0.3c1.1,0,2.2,0.6,2.7,1.7C32.7,31.9,32.1,33.7,30.6,34.4z M29,42.9
		c-0.6,0.1-1.2,0.2-1.8,0.2s-1.2-0.1-1.8-0.2c-0.5-0.1-1-0.3-1.5-0.5c-1.9-0.8-3.5-2.2-4.4-4.1C19.3,38,19.1,37.5,19,37
		c-0.2-0.7-0.4-1.4-0.4-2.1c0,0,0-0.1,0-0.1l0-0.2l-0.1,0c0,0,0-0.1-0.1-0.1l0.2,0c0-0.5,0-1.1,0.1-1.7c0.1-0.8,0.3-1.7,0.6-2.7
		c0.4-1.5,1.1-3.1,2-4.7c0.2-0.3,0.3-0.6,0.5-0.9c0.7-1.2,1.5-2.4,2.4-3.5c1.3-1.7,2.4-2.9,3-3.5c0.5,0.5,1.5,1.6,2.6,2.9
		c0.2,0.2,0.3,0.4,0.5,0.6c0.8,1,1.5,2.1,2.2,3.2l-2.2,3.3c-1-0.2-1.9-0.1-2.8,0.3c-2.2,1-3.1,3.6-2.1,5.8c0.7,1.6,2.3,2.5,3.9,2.5
		c0.6,0,1.2-0.1,1.8-0.4c0.7-0.3,1.2-0.8,1.7-1.4l3,1.5c-0.1,0.4-0.2,0.9-0.3,1.3c-0.2,0.5-0.3,0.9-0.5,1.3
		c-0.9,1.8-2.5,3.3-4.4,4.1C30,42.6,29.5,42.8,29,42.9z"/>
</g>
</svg>
