<?xml version="1.0" encoding="UTF-8"?><svg id="a" xmlns="http://www.w3.org/2000/svg" viewBox="0 0 60 60"><path d="M33.41,25.62c-1.52-.75-2.91,.92-3.07,1.11,0,0,0,0,0,0-.08,.11-.19,.19-.33,.19h-.03c-.17,0-.32-.09-.4-.24,0-.01,0-.02,0-.03-.26-.3-1.14-1.22-2.19-1.22-.26,0-.53,.06-.81,.19-1.98,.98-.97,3.66-.93,3.78,.01,.03,1.23,3.11,4.34,5.32,3.12-2.21,4.33-5.29,4.34-5.32,.04-.11,1.05-2.8-.93-3.78Z" fill="#9cca3c"/><path d="M33.7,41.45h-7.32c-.1,0-.21,.05-.28,.13,0,0,0,0,0,0-.04,.05-.09,.13-.09,.24v.49c0,.2,.16,.37,.37,.37h7.32c.2,0,.37-.16,.37-.37v-.49c0-.1-.04-.2-.12-.27-.07-.06-.16-.1-.25-.1Z" fill="#9cca3c"/><path d="M30.59,19.82h-1.17c-4.11,.21-6.77,2.98-7.88,5.5-1.03,2.33-.96,5.79,.16,8.06,.59,1.19,1.56,2.13,2.49,3.04l.24,.23c1.2,1.17,1.68,1.78,1.77,3.92,.06,0,.12-.02,.19-.02h7.32s.08,.02,.13,.02c.09-2.15,.57-2.75,1.77-3.92l.24-.24c.93-.91,1.9-1.84,2.49-3.04,1.12-2.27,1.19-5.73,.16-8.06-1.11-2.52-3.78-5.29-7.91-5.5Zm4.59,9.9c-.05,.14-1.38,3.53-4.93,5.91-.08,.05-.16,.08-.25,.08s-.17-.03-.25-.08c-3.54-2.39-4.87-5.77-4.93-5.91-.48-1.22-.8-3.83,1.37-4.9,1.68-.83,3.15,.31,3.81,.97,.66-.65,2.14-1.8,3.81-.97,2.17,1.07,1.84,3.68,1.37,4.9Z" fill="#9cca3c"/><path d="M28,46.61c.14,.37,.5,.62,.9,.62h2.29c.4,0,.76-.25,.9-.62l.36-.92h-4.81l.36,.92Z" fill="#9cca3c"/><path d="M33.7,43.57h-7.32c-.2,0-.37,.16-.37,.37v.49c0,.2,.16,.37,.37,.37h7.32c.2,0,.37-.16,.37-.37v-.49c0-.2-.16-.37-.37-.37Z" fill="#9cca3c"/><path d="M30,.5C13.71,.5,.5,13.71,.5,30s13.21,29.5,29.5,29.5,29.5-13.21,29.5-29.5S46.29,.5,30,.5Zm10.41,18.56l4.04-4c.18-.17,.46-.17,.63,0,.17,.18,.17,.46,0,.63l-4.04,4c-.09,.09-.2,.13-.31,.13s-.23-.04-.32-.13c-.17-.18-.17-.46,0-.63Zm-10.83-6.73c0-.25,.2-.45,.45-.45s.45,.2,.45,.45v4.59c0,.25-.2,.45-.45,.45s-.45-.2-.45-.45v-4.59Zm-14.66,2.73c.17-.18,.46-.18,.63,0l4.04,4c.18,.17,.18,.46,0,.63-.09,.09-.2,.13-.32,.13s-.23-.04-.31-.13l-4.04-4c-.18-.17-.18-.46,0-.63Zm-3.21,11.74c0-.25,.2-.45,.45-.45h4.59c.25,0,.45,.2,.45,.45s-.2,.45-.45,.45h-4.59c-.25,0-.45-.2-.45-.45Zm8.94,11.69l-4.04,4c-.09,.09-.2,.13-.31,.13s-.23-.04-.32-.13c-.17-.18-.17-.46,0-.63l4.04-4c.18-.17,.46-.17,.63,0,.17,.18,.17,.46,0,.63Zm15.82-1.43l-.24,.24c-1.11,1.08-1.49,1.46-1.52,3.81,.15,.21,.26,.45,.26,.71v.49c0,.31-.13,.59-.32,.81,.19,.22,.32,.5,.32,.81v.49c0,.7-.57,1.26-1.26,1.26h-.3l-.48,1.25c-.27,.71-.97,1.19-1.73,1.19h-2.29c-.76,0-1.46-.48-1.73-1.19l-.48-1.25h-.3c-.7,0-1.26-.57-1.26-1.26v-.49c0-.31,.13-.59,.32-.81-.19-.22-.32-.5-.32-.81v-.49c0-.23,.08-.44,.2-.64-.02-2.41-.4-2.8-1.52-3.88l-.24-.23c-.99-.96-2.02-1.96-2.67-3.29-1.22-2.48-1.3-6.27-.17-8.82,1.22-2.77,4.14-5.8,8.68-6.03h1.21c4.56,.23,7.48,3.26,8.7,6.03,1.12,2.54,1.05,6.34-.17,8.82-.66,1.33-1.68,2.33-2.67,3.29Zm7.55,5.42c-.09,.09-.2,.13-.32,.13s-.23-.04-.31-.13l-4.04-4c-.18-.17-.18-.46,0-.63,.17-.18,.46-.18,.63,0l4.04,4c.18,.17,.18,.46,0,.63Zm3.83-15.23h-4.59c-.25,0-.45-.2-.45-.45s.2-.45,.45-.45h4.59c.25,0,.45,.2,.45,.45s-.2,.45-.45,.45Z" fill="#9cca3c"/></svg>