<?xml version="1.0" encoding="UTF-8"?><svg id="a" xmlns="http://www.w3.org/2000/svg" viewBox="0 0 60 60"><path d="M30,20.11c-5.45,0-9.89,4.44-9.89,9.89s4.44,9.89,9.89,9.89,9.89-4.44,9.89-9.89-4.44-9.89-9.89-9.89Zm6.02,8.39l-5.58,6.06c-.41,.44-.98,.7-1.58,.7h-.01c-.61,0-1.18-.27-1.59-.73l-3.29-3.7c-.8-.9-.74-2.31,.13-3.13,.43-.4,.99-.62,1.56-.59,.58,.03,1.12,.28,1.51,.72l1.71,1.93,3.98-4.32c.4-.43,.94-.68,1.52-.7,.54-.02,1.13,.2,1.56,.61,.86,.84,.9,2.25,.08,3.13Z" fill="#9cca3c"/><path d="M43.37,24.01c-.57-.53-.96-1.21-1.14-1.97l-.61-2.71c-.29-1.28-1.41-2.22-2.72-2.29l-2.77-.13c-.78-.04-1.52-.31-2.14-.78l-2.21-1.68c-1.05-.8-2.51-.8-3.56,0l-2.21,1.68c-.62,.47-1.36,.74-2.14,.78l-2.77,.13c-1.31,.06-2.44,1-2.73,2.28l-.61,2.71c-.17,.76-.57,1.44-1.14,1.97l-2.04,1.88c-.97,.89-1.22,2.33-.62,3.5l1.27,2.47c.36,.69,.49,1.47,.39,2.24l-.35,2.75c-.17,1.3,.56,2.57,1.78,3.08l2.56,1.07c.72,.3,1.32,.81,1.74,1.46l1.5,2.33c.71,1.11,2.08,1.61,3.34,1.22l2.65-.82c.37-.12,.75-.17,1.13-.17s.77,.06,1.14,.17l2.65,.83c1.26,.39,2.63-.11,3.34-1.21l1.5-2.33c.42-.66,1.02-1.16,1.74-1.46l2.56-1.07c1.21-.51,1.95-1.77,1.78-3.08l-.35-2.75c-.1-.77,.04-1.55,.4-2.24l1.27-2.47c.6-1.17,.35-2.61-.62-3.5l-2.04-1.88Zm-13.37,16.77c-5.95,0-10.79-4.84-10.79-10.79s4.84-10.79,10.79-10.79,10.79,4.84,10.79,10.79-4.84,10.79-10.79,10.79Z" fill="#9cca3c"/><path d="M34.41,25.64c-.34,0-.65,.15-.89,.41l-4.65,5.04-2.37-2.66c-.23-.26-.54-.41-.88-.43-.02,0-.04,0-.05,0-.32,0-.62,.12-.86,.35-.53,.5-.56,1.34-.08,1.89l3.29,3.7c.24,.27,.58,.42,.93,.43v.45s.01-.45,.01-.45c.35,0,.68-.15,.92-.41l5.58-6.06c.49-.53,.47-1.38-.05-1.89-.25-.24-.57-.37-.91-.36Z" fill="#9cca3c"/><path d="M30,.5C13.71,.5,.5,13.71,.5,30s13.21,29.5,29.5,29.5,29.5-13.21,29.5-29.5S46.29,.5,30,.5Zm16.82,29.31l-1.27,2.47c-.27,.53-.38,1.12-.3,1.72l.35,2.75c.22,1.7-.74,3.35-2.32,4.02l-2.56,1.07c-.55,.23-1.01,.62-1.34,1.12l-1.5,2.33c-.72,1.11-1.95,1.76-3.23,1.76-.38,0-.76-.06-1.13-.17l-2.65-.83c-.57-.18-1.17-.18-1.74,0l-2.65,.82c-1.64,.51-3.43-.14-4.36-1.59l-1.5-2.33c-.32-.5-.78-.89-1.33-1.12l-2.56-1.07c-1.58-.66-2.54-2.32-2.32-4.02l.35-2.75c.08-.59-.03-1.19-.3-1.72l-1.27-2.47c-.79-1.53-.45-3.4,.81-4.57l2.04-1.88c.44-.4,.74-.93,.87-1.51l.61-2.71c.38-1.67,1.84-2.9,3.56-2.98l2.77-.13c.6-.03,1.16-.23,1.64-.6l2.21-1.68c1.37-1.04,3.27-1.04,4.64,0l2.21,1.68c.48,.36,1.04,.57,1.64,.6l2.77,.13c1.71,.08,3.17,1.31,3.55,2.98l.61,2.71c.13,.58,.43,1.1,.87,1.51l2.04,1.88c1.26,1.17,1.59,3.04,.8,4.57Z" fill="#9cca3c"/></svg>