<?xml version="1.0" encoding="utf-8"?>
<!-- Generator: Adobe Illustrator 24.2.0, SVG Export Plug-In . SVG Version: 6.00 Build 0)  -->
<svg version="1.1" id="a" xmlns="http://www.w3.org/2000/svg" xmlns:xlink="http://www.w3.org/1999/xlink" x="0px" y="0px"
	 viewBox="0 0 60 60" style="enable-background:new 0 0 60 60;" xml:space="preserve">
<style type="text/css">
	.st0{fill:#9CCA3C;}
</style>
<g>
	<path class="st0" d="M43.6,18.8c-2.3-0.5-7.1-1.9-13.2-5.6c-0.1-0.1-0.3-0.1-0.4-0.1s-0.3,0-0.4,0.1c-6.1,3.6-10.9,5-13.2,5.6
		c-0.5,0.1-0.9,0.6-0.9,1.1c-0.4,5.6-0.5,24.1,14.4,26.9c0.1,0,0.1,0,0.2,0c0,0,0,0,0,0C45,44.1,44.9,25.5,44.5,19.9
		C44.5,19.4,44.1,18.9,43.6,18.8z M38.4,24.9L27.6,36c-0.1,0.1-0.3,0.2-0.5,0.2c0,0,0,0,0,0c-0.2,0-0.4-0.1-0.5-0.2l-5-5.7
		c-0.2-0.3-0.2-0.7,0.1-0.9c0.3-0.2,0.7-0.2,0.9,0.1l4.6,5.1L37.4,24c0.3-0.3,0.7-0.3,0.9,0C38.6,24.2,38.6,24.6,38.4,24.9z"/>
	<path class="st0" d="M30,0.5C13.7,0.5,0.5,13.7,0.5,30c0,16.3,13.2,29.5,29.5,29.5c16.3,0,29.5-13.2,29.5-29.5
		C59.5,13.7,46.3,0.5,30,0.5z M30.3,48.1c-0.1,0-0.2,0-0.3,0c-0.1,0-0.2,0-0.3,0c-16-3-15.9-22.4-15.5-28.3c0.1-1.1,0.9-2,1.9-2.3
		C18.4,17,23,15.7,29,12.1c0.6-0.4,1.5-0.4,2.1,0c6,3.5,10.6,4.9,12.8,5.4c1.1,0.2,1.9,1.2,1.9,2.3C46.2,25.7,46.3,45.1,30.3,48.1z"
		/>
</g>
</svg>
