<?xml version="1.0" encoding="UTF-8"?><svg id="a" xmlns="http://www.w3.org/2000/svg" viewBox="0 0 60 60"><path d="M37.89,31.37v-14.28c0-1.01-.82-1.83-1.83-1.83H16.05c-1.01,0-1.83,.82-1.83,1.83v19.73l2.57-3.28c.17-.22,.42-.34,.7-.34h18.58c1.01,0,1.83-.82,1.83-1.83Zm-16.23-4.96c-1.03,0-1.87-.84-1.87-1.87s.84-1.87,1.87-1.87,1.87,.84,1.87,1.87-.84,1.87-1.87,1.87Zm5.23,0c-1.03,0-1.87-.84-1.87-1.87s.84-1.87,1.87-1.87,1.87,.84,1.87,1.87-.84,1.87-1.87,1.87Zm5.23,0c-1.03,0-1.87-.84-1.87-1.87s.84-1.87,1.87-1.87,1.87,.84,1.87,1.87-.84,1.87-1.87,1.87Z" fill="#9cca3c"/><circle cx="32.13" cy="24.54" r=".98" fill="#9cca3c"/><circle cx="21.66" cy="24.54" r=".98" fill="#9cca3c"/><circle cx="26.9" cy="24.54" r=".98" fill="#9cca3c"/><path d="M43.95,23.14h-5.17v3.49h3.4c.25,0,.45,.2,.45,.45s-.2,.45-.45,.45h-3.4v3.85c0,.17-.02,.34-.05,.5h3.45c.25,0,.45,.2,.45,.45s-.2,.45-.45,.45h-3.8c-.48,.79-1.34,1.33-2.33,1.33h-13.96v5.16c0,1.01,.82,1.83,1.83,1.83h18.46c.27,0,.52,.12,.69,.33l2.7,3.33V24.97c0-1.01-.83-1.83-1.83-1.83Zm-1.76,14.62H25.65c-.25,0-.45-.2-.45-.45s.2-.45,.45-.45h16.54c.25,0,.45,.2,.45,.45s-.2,.45-.45,.45Z" fill="#9cca3c"/><path d="M30,.5C13.71,.5,.5,13.71,.5,30s13.21,29.5,29.5,29.5,29.5-13.21,29.5-29.5S46.29,.5,30,.5Zm16.68,44.24c0,.38-.23,.71-.59,.84-.1,.04-.2,.05-.3,.05-.26,0-.51-.12-.69-.33l-2.7-3.33H23.94c-1.5,0-2.72-1.22-2.72-2.72v-5.16h-3.73l-2.57,3.28c-.17,.22-.43,.34-.69,.34-.1,0-.2-.02-.3-.05-.36-.13-.6-.46-.6-.84V17.09c0-1.5,1.22-2.72,2.72-2.72h20.02c1.5,0,2.72,1.22,2.72,2.72v5.16h5.17c1.5,0,2.72,1.22,2.72,2.72v19.77Z" fill="#9cca3c"/></svg>