<?xml version="1.0" encoding="utf-8"?>
<!-- Generator: Adobe Illustrator 24.2.0, SVG Export Plug-In . SVG Version: 6.00 Build 0)  -->
<svg version="1.1" id="a" xmlns="http://www.w3.org/2000/svg" xmlns:xlink="http://www.w3.org/1999/xlink" x="0px" y="0px"
	 viewBox="0 0 60 60" style="enable-background:new 0 0 60 60;" xml:space="preserve">
<style type="text/css">
	.st0{fill:#9CCA3C;}
</style>
<g>
	<path class="st0" d="M32.9,42.6c-0.5-0.5-1.4-0.5-1.9,0l-3,3c-0.3,0.3-0.3,0.9,0,1.2l1,1c0.3,0.3,0.9,0.3,1.2,0l3-3
		c0.2-0.2,0.4-0.6,0.4-0.9s-0.1-0.7-0.4-0.9L32.9,42.6z"/>
	<path class="st0" d="M30.1,39.8l-0.3-0.3c-0.2-0.2-0.6-0.4-0.9-0.4s-0.7,0.1-0.9,0.4l-3,3c-0.2,0.2-0.2,0.4-0.2,0.6
		s0.1,0.4,0.2,0.6c0,0,0,0,0,0l1,1c0.3,0.3,0.9,0.3,1.2,0l3-3C30.6,41.2,30.6,40.4,30.1,39.8z"/>
	<path class="st0" d="M22.7,36.5l1.1-1.1c0.5-0.5,0.5-1.3,0-1.9l-0.3-0.3c-0.5-0.5-1.3-0.5-1.9,0l-3,3c-0.1,0.1-0.1,0.1-0.1,0.2
		c-0.2,0.3-0.1,0.7,0.1,0.9l0.1,0.1l1,1c0.3,0.3,0.9,0.3,1.2,0L22.7,36.5C22.7,36.5,22.7,36.5,22.7,36.5z"/>
	<path class="st0" d="M26.9,36.7l-0.3-0.3c0,0,0,0,0,0l0,0l0,0c-0.5-0.5-1.4-0.5-1.9,0l-1.1,1.1l-1.9,1.9c-0.3,0.3-0.3,0.9,0,1.2
		l1,1c0.3,0.3,0.9,0.3,1.2,0l3-3C27.4,38.1,27.4,37.2,26.9,36.7z"/>
	<path class="st0" d="M33.8,24c-0.3-0.3-0.7-0.5-1-0.5c-0.6,0-1,0.6-1,0.6l-3.7,3.7c-1.3,1.3-2.2,1.8-3.6,1.9
		c-1.3,0.1-2.2-0.3-3-1.2c-0.9-1-0.4-2.2,0.2-2.7l7.3-7.3c-2.1-1.8-4.8-2.8-7.6-2.6c-5,0.4-9,4.4-9.4,9.4c-0.2,2.8,0.7,5.5,2.6,7.6
		l2.6,3c0,0,0-0.1,0.1-0.1c0.1-0.2,0.2-0.3,0.4-0.5l3-3c1-1,2.7-1,3.7,0l0.3,0.3c0.6,0.6,0.8,1.3,0.7,2.1c0.7-0.1,1.5,0.2,2.1,0.7
		l0,0c0,0,0,0,0,0l0.3,0.3c0.6,0.6,0.8,1.3,0.7,2.1c0.7-0.1,1.5,0.2,2.1,0.7l0.3,0.3c0.6,0.6,0.8,1.3,0.7,2.1
		c0.7-0.1,1.5,0.2,2.1,0.7l0.3,0.3c0.1,0.1,0.1,0.2,0.2,0.2c0,0,0,0,0,0c0.5,0.5,1.4,0.4,2-0.1l0.5-0.4c0.5-0.5,0.5-1.4,0-1.9
		l-6.6-6.6c-0.3-0.3-0.3-0.7,0-0.9c0.3-0.3,0.7-0.3,0.9,0l6.6,6.6c0.3,0.3,0.6,0.4,1,0.4s0.7-0.1,1-0.4l0.4-0.4
		c0.5-0.5,0.5-1.4,0-1.9c0,0,0,0,0,0L33.4,30c-0.3-0.3-0.3-0.7,0-0.9c0.3-0.3,0.7-0.3,0.9,0l6.6,6.6c0.3,0.3,0.6,0.4,1,0.4
		c0.4,0,0.7-0.1,1-0.4l0.4-0.4c0.5-0.5,0.5-1.4,0-1.9L33.8,24z"/>
	<path class="st0" d="M38.6,15.9c-3-0.2-6,0.9-8.1,3c0,0,0,0,0,0s0,0,0,0l-7.8,7.8c-0.2,0.2-0.5,0.5-0.1,0.9
		c0.4,0.5,0.9,0.8,1.9,0.7c1-0.1,1.6-0.4,2.7-1.5l3.6-3.6c0-0.1,0.8-0.9,1.9-1c0.7,0,1.4,0.3,2,0.9l9.4,9.4c0.3,0.3,0.5,0.7,0.7,1.1
		c2.3-2.1,3.5-5.2,3.2-8.4C47.5,20.3,43.5,16.3,38.6,15.9z"/>
	<path class="st0" d="M30,0.5C13.7,0.5,0.5,13.7,0.5,30c0,16.3,13.2,29.5,29.5,29.5c16.3,0,29.5-13.2,29.5-29.5
		C59.5,13.7,46.3,0.5,30,0.5z M44.7,35.4c-0.1,0.3-0.3,0.6-0.6,0.9l-0.4,0.4c-0.5,0.5-1.2,0.8-1.9,0.8c0,0,0,0,0,0
		c-0.1,0-0.1,0-0.2,0c0.1,0.7-0.2,1.5-0.8,2.1l-0.4,0.4c-0.5,0.5-1.2,0.8-1.9,0.8c0,0,0,0,0,0c-0.1,0-0.1,0-0.2,0
		c0.1,0.7-0.2,1.5-0.8,2.1l-0.5,0.4c-0.6,0.6-1.3,0.8-2,0.8c-0.1,0-0.2,0-0.3,0c0,0,0,0,0,0c0,0.7-0.3,1.4-0.8,1.9l-3,3
		c-0.4,0.4-1,0.6-1.5,0.6s-1.1-0.2-1.5-0.6l-1-1c0,0,0,0,0,0c-0.4-0.4-0.6-1-0.6-1.5c-0.5,0-1.1-0.2-1.5-0.6l-1-1
		c-0.4-0.4-0.6-0.9-0.6-1.5c-0.5,0-1.1-0.2-1.5-0.6l-1-1c-0.4-0.4-0.6-1-0.6-1.5c-0.5,0-1.1-0.2-1.5-0.6l-1-1c0,0,0,0,0,0
		c0,0,0,0,0,0l-0.1-0.1c0,0,0,0,0,0c0,0,0,0,0,0l-3.9-4.4c-2.1-2.4-3.1-5.4-2.9-8.6c0.4-5.6,5-10.2,10.6-10.6c3.2-0.2,6.3,0.8,8.7,3
		c2.4-2.1,5.5-3.2,8.7-3c5.6,0.4,10.1,4.9,10.6,10.5C49.6,29.1,47.9,33,44.7,35.4z"/>
</g>
</svg>
