<?xml version="1.0" encoding="utf-8"?>
<!-- Generator: Adobe Illustrator 24.2.0, SVG Export Plug-In . SVG Version: 6.00 Build 0)  -->
<svg version="1.1" id="a" xmlns="http://www.w3.org/2000/svg" xmlns:xlink="http://www.w3.org/1999/xlink" x="0px" y="0px"
	 viewBox="0 0 60 60" style="enable-background:new 0 0 60 60;" xml:space="preserve">
<style type="text/css">
	.st0{fill:#9CCA3C;}
</style>
<g>
	<path class="st0" d="M34,43.5h-7.2c-0.1,0-0.1,0.1-0.1,0.1v0.5c0,0.1,0.1,0.1,0.1,0.1h0.6h0c0,0,0,0,0,0h5.9c0,0,0,0,0,0h0H34
		c0.1,0,0.1-0.1,0.1-0.1v-0.5C34.2,43.6,34.1,43.5,34,43.5z"/>
	<path class="st0" d="M34.1,41.5C34.1,41.5,34.1,41.4,34.1,41.5l-7.3,0c-0.1,0-0.1,0-0.1,0.1c0,0,0,0,0,0c0,0,0,0,0,0
		c0,0,0,0.1,0,0.1v0.5c0,0.1,0.1,0.1,0.1,0.1H34c0.1,0,0.1-0.1,0.1-0.1v-0.5C34.2,41.5,34.1,41.5,34.1,41.5
		C34.1,41.5,34.1,41.5,34.1,41.5z"/>
	<path class="st0" d="M30.9,20.2l-1.1,0c-3.9,0.2-6.5,2.8-7.5,5.3c-1,2.2-0.9,5.6,0.1,7.7c0.6,1.1,1.5,2,2.4,2.9l0.2,0.2
		c1.1,1.1,1.7,1.7,1.8,3.8h7.1c0.1-2,0.7-2.7,1.8-3.8l0.2-0.2c0.9-0.9,1.8-1.8,2.4-2.9c1.1-2.2,1.1-5.5,0.1-7.7
		C37.4,23.1,34.9,20.4,30.9,20.2z M35.6,29.8c-0.1,0.1-1.4,3.5-4.9,5.9c-0.1,0.1-0.2,0.1-0.4,0.1s-0.3,0-0.4-0.1
		c-3.5-2.4-4.9-5.8-4.9-5.9c-0.5-1.3-0.8-3.9,1.4-5.1c1.4-0.7,2.9-0.1,3.8,0.8c0.7-0.7,2.2-1.7,3.8-0.8
		C36.5,25.9,36.1,28.5,35.6,29.8z"/>
	<path class="st0" d="M28.6,46.2c0.1,0.3,0.4,0.5,0.7,0.5h2.2c0.3,0,0.6-0.2,0.7-0.5l0.2-0.6h-4.1L28.6,46.2z"/>
	<path class="st0" d="M33.6,25.9c-1.3-0.7-2.6,0.9-2.7,1c0,0,0,0,0,0c-0.1,0.1-0.3,0.2-0.5,0.2h0c-0.2,0-0.5-0.1-0.6-0.4
		c0,0,0,0,0,0c-0.3-0.3-1-1.1-2-1.1c-0.2,0-0.5,0-0.7,0.2c-1.8,0.9-0.8,3.4-0.8,3.4c0,0,1.2,2.9,4.1,5c2.9-2.1,4-5,4.1-5
		C34.5,29.2,35.4,26.8,33.6,25.9z"/>
	<path class="st0" d="M30,0.5C13.7,0.5,0.5,13.7,0.5,30c0,16.3,13.2,29.5,29.5,29.5S59.5,46.3,59.5,30C59.5,13.7,46.3,0.5,30,0.5z
		 M37.6,18.8l4-4.8c0.2-0.3,0.6-0.3,0.9-0.1c0.3,0.2,0.3,0.6,0.1,0.9l-4,4.8c-0.1,0.2-0.3,0.2-0.5,0.2c-0.1,0-0.3,0-0.4-0.2
		C37.4,19.5,37.4,19.1,37.6,18.8z M29.3,10c0-0.4,0.3-0.6,0.7-0.6s0.7,0.3,0.7,0.6v6.3c0,0.4-0.3,0.6-0.7,0.6s-0.7-0.3-0.7-0.6V10z
		 M17.4,14c0.3-0.2,0.7-0.2,0.9,0.1l4,4.8c0.2,0.3,0.2,0.7-0.1,0.9c-0.1,0.1-0.3,0.2-0.4,0.2c-0.2,0-0.4-0.1-0.5-0.2l-4-4.8
		C17.1,14.6,17.2,14.2,17.4,14z M10.8,25.5c0.1-0.4,0.4-0.6,0.8-0.5l6.2,1.1c0.4,0.1,0.6,0.4,0.5,0.8c-0.1,0.3-0.3,0.5-0.6,0.5
		c0,0-0.1,0-0.1,0l-6.2-1.1C11,26.2,10.7,25.9,10.8,25.5z M19.4,35.8L14,38.9C13.9,39,13.8,39,13.7,39c-0.2,0-0.4-0.1-0.6-0.3
		c-0.2-0.3-0.1-0.7,0.2-0.9l5.4-3.1c0.3-0.2,0.7-0.1,0.9,0.2C19.8,35.2,19.7,35.6,19.4,35.8z M36.9,37.1l-0.2,0.2
		c-1,1-1.4,1.4-1.4,3.5c0.2,0.2,0.2,0.5,0.2,0.8v0.5c0,0.3-0.1,0.6-0.2,0.8c0.2,0.2,0.2,0.5,0.2,0.8v0.5c0,0.8-0.6,1.4-1.4,1.4h-0.1
		l-0.4,1.1c-0.3,0.8-1.1,1.3-1.9,1.3h-2.2c-0.8,0-1.6-0.5-1.9-1.3L27,45.6h-0.1c-0.8,0-1.4-0.6-1.4-1.4v-0.5c0-0.3,0.1-0.6,0.2-0.8
		c-0.2-0.2-0.2-0.5-0.2-0.8v-0.5c0-0.2,0.1-0.5,0.2-0.7c0-2.2-0.3-2.5-1.4-3.6l-0.2-0.2c-1-1-2-1.9-2.7-3.3C20,31.3,20,27.5,21.1,25
		c1.2-2.8,4.2-5.8,8.7-6l1.2,0c4.6,0.2,7.5,3.3,8.7,6c1.1,2.5,1.1,6.3-0.2,8.8C38.9,35.1,37.8,36.1,36.9,37.1z M46.9,38.6
		c-0.1,0.2-0.3,0.3-0.6,0.3c-0.1,0-0.2,0-0.3-0.1l-5.4-3.1c-0.3-0.2-0.4-0.6-0.2-0.9c0.2-0.3,0.6-0.4,0.9-0.2l5.4,3.1
		C47,37.9,47.1,38.3,46.9,38.6z M48.7,26.2l-6.2,1.1c0,0-0.1,0-0.1,0c-0.3,0-0.6-0.2-0.6-0.5c-0.1-0.4,0.2-0.7,0.5-0.8l6.2-1.1
		c0.4-0.1,0.7,0.2,0.8,0.5C49.3,25.8,49,26.2,48.7,26.2z"/>
</g>
</svg>
