<?xml version="1.0" encoding="utf-8"?>
<!-- Generator: Adobe Illustrator 24.2.0, SVG Export Plug-In . SVG Version: 6.00 Build 0)  -->
<svg version="1.1" id="a" xmlns="http://www.w3.org/2000/svg" xmlns:xlink="http://www.w3.org/1999/xlink" x="0px" y="0px"
	 viewBox="0 0 60 60" style="enable-background:new 0 0 60 60;" xml:space="preserve">
<style type="text/css">
	.st0{fill:#9CCA3C;}
</style>
<g>
	<path class="st0" d="M32.4,23c-0.5,0-0.9,0.4-0.9,0.9c0,0.5,0.4,0.9,0.9,0.9c0.5,0,0.9-0.4,0.9-0.9C33.3,23.4,32.9,23,32.4,23z"/>
	<path class="st0" d="M20.8,23c-0.5,0-0.9,0.4-0.9,0.9c0,0.5,0.4,0.9,0.9,0.9c0.5,0,0.9-0.4,0.9-0.9C21.7,23.4,21.3,23,20.8,23z"/>
	<path class="st0" d="M38.6,31.5v-9.6v-0.6v-5.6c0-1-0.8-1.9-1.9-1.9H14.5c-1,0-1.9,0.8-1.9,1.9v21.4l2.6-3.3
		c0.2-0.3,0.5-0.4,0.9-0.4h4h0.7h16C37.8,33.4,38.6,32.6,38.6,31.5z M20.8,26.2c-1.2,0-2.2-1-2.2-2.2c0-1.2,1-2.2,2.2-2.2
		c1.2,0,2.2,1,2.2,2.2C23,25.2,22,26.2,20.8,26.2z M26.6,26.2c-1.2,0-2.2-1-2.2-2.2c0-1.2,1-2.2,2.2-2.2c1.2,0,2.2,1,2.2,2.2
		C28.8,25.2,27.8,26.2,26.6,26.2z M32.4,26.2c-1.2,0-2.2-1-2.2-2.2c0-1.2,1-2.2,2.2-2.2c1.2,0,2.2,1,2.2,2.2
		C34.6,25.2,33.6,26.2,32.4,26.2z"/>
	<path class="st0" d="M30,0.5C13.7,0.5,0.5,13.7,0.5,30c0,16.3,13.2,29.5,29.5,29.5S59.5,46.3,59.5,30C59.5,13.7,46.3,0.5,30,0.5z
		 M48.7,46.3c0,0.5-0.3,0.9-0.8,1.1c-0.1,0-0.3,0.1-0.4,0.1c-0.3,0-0.7-0.1-0.9-0.4l-2.9-3.6H23.3c-1.8,0-3.2-1.4-3.2-3.2v-5.6h-3.9
		l-2.8,3.6c-0.2,0.3-0.5,0.4-0.9,0.4c-0.1,0-0.3,0-0.4-0.1c-0.5-0.2-0.8-0.6-0.8-1.1V15.7c0-1.7,1.4-3.2,3.2-3.2h22.2
		c1.7,0,3.2,1.4,3.2,3.2v5.6h5.6c1.8,0,3.2,1.4,3.2,3.2V46.3z"/>
	<path class="st0" d="M26.6,23c-0.5,0-0.9,0.4-0.9,0.9c0,0.5,0.4,0.9,0.9,0.9c0.5,0,0.9-0.4,0.9-0.9C27.5,23.4,27.1,23,26.6,23z"/>
	<path class="st0" d="M45.5,22.5h-5.6v3.6h3.6c0.4,0,0.7,0.3,0.7,0.6s-0.3,0.6-0.7,0.6h-3.6v4.1c0,0.1,0,0.3,0,0.4h3.7
		c0.4,0,0.7,0.3,0.7,0.6s-0.3,0.6-0.7,0.6h-4.1c-0.6,0.9-1.5,1.5-2.7,1.5H21.4v5.6c0,1,0.8,1.9,1.9,1.9h20.5c0.3,0,0.7,0.2,0.9,0.4
		l2.7,3.3V24.4C47.3,23.4,46.5,22.5,45.5,22.5z M43.5,38.8H25.2c-0.4,0-0.7-0.3-0.7-0.6s0.3-0.6,0.7-0.6h18.3c0.4,0,0.7,0.3,0.7,0.6
		S43.9,38.8,43.5,38.8z"/>
</g>
</svg>
