<?xml version="1.0" encoding="utf-8"?>
<!-- Generator: Adobe Illustrator 24.2.0, SVG Export Plug-In . SVG Version: 6.00 Build 0)  -->
<svg version="1.1" id="a" xmlns="http://www.w3.org/2000/svg" xmlns:xlink="http://www.w3.org/1999/xlink" x="0px" y="0px"
	 viewBox="0 0 60 60" style="enable-background:new 0 0 60 60;" xml:space="preserve">
<style type="text/css">
	.st0{fill:#9CCA3C;}
</style>
<g>
	<path class="st0" d="M34.9,25.3c-0.3,0-0.6,0.2-0.9,0.4l-5.3,5.7L26,28.4c-0.2-0.3-0.5-0.4-0.9-0.4c0,0,0,0-0.1,0
		c-0.3,0-0.6,0.1-0.8,0.3c-0.5,0.5-0.6,1.3-0.1,1.9l3.7,4.1c0.2,0.3,0.6,0.4,0.9,0.4l0,0.6v-0.6c0.3,0,0.7-0.1,0.9-0.4l6.2-6.7
		c0.5-0.5,0.5-1.4,0-1.9C35.5,25.4,35.2,25.3,34.9,25.3z"/>
	<path class="st0" d="M30,19.2c-6,0-10.8,4.9-10.8,10.8S24,40.8,30,40.8S40.8,36,40.8,30S36,19.2,30,19.2z M36.8,28.4l-6.2,6.7
		c-0.5,0.5-1.2,0.8-1.9,0.8h0c-0.7,0-1.4-0.3-1.9-0.9L23.2,31c-0.9-1.1-0.9-2.7,0.2-3.7c0.5-0.5,1.2-0.7,1.8-0.7
		c0.7,0,1.3,0.3,1.8,0.9l1.8,2l4.3-4.7c0.5-0.5,1.1-0.8,1.8-0.8c0.7,0,1.3,0.2,1.8,0.7C37.7,25.7,37.8,27.4,36.8,28.4z"/>
	<path class="st0" d="M30,0.5C13.7,0.5,0.5,13.7,0.5,30c0,16.3,13.2,29.5,29.5,29.5c16.3,0,29.5-13.2,29.5-29.5
		C59.5,13.7,46.3,0.5,30,0.5z M48.8,29.9l-1.4,2.7c-0.3,0.6-0.4,1.2-0.3,1.8l0.4,3.1c0.2,2-0.8,3.9-2.7,4.6l-2.8,1.2
		c-0.6,0.2-1.1,0.7-1.4,1.2L38.9,47c-0.8,1.3-2.2,2-3.7,2c-0.4,0-0.9-0.1-1.3-0.2L30.9,48c-0.6-0.2-1.2-0.2-1.8,0l-2.9,0.9
		c-1.9,0.6-3.9-0.2-5-1.8l-1.7-2.6c-0.3-0.5-0.8-0.9-1.4-1.2l-2.8-1.2c-1.8-0.8-2.9-2.7-2.7-4.6l0.4-3.1c0.1-0.6,0-1.3-0.3-1.8
		l-1.4-2.7c-0.9-1.8-0.5-3.9,0.9-5.3l2.3-2.1c0.5-0.4,0.8-1,0.9-1.6l0.7-3c0.4-1.9,2.1-3.3,4.1-3.4l3.1-0.1c0.6,0,1.2-0.2,1.7-0.6h0
		l2.5-1.9c1.6-1.2,3.8-1.2,5.3,0l2.4,1.9c0.5,0.4,1.1,0.6,1.7,0.6l3.1,0.1c2,0.1,3.7,1.5,4.1,3.4l0.7,3c0.1,0.6,0.5,1.2,0.9,1.6
		l2.3,2.1C49.3,25.9,49.7,28.1,48.8,29.9z"/>
	<path class="st0" d="M44.7,23.5c-0.7-0.6-1.1-1.4-1.3-2.3l-0.7-3c-0.3-1.4-1.5-2.4-2.9-2.4l-3.1-0.1c-0.9,0-1.7-0.4-2.5-0.9
		l-2.4-1.9c-1.1-0.8-2.7-0.8-3.8,0l-2.5,1.9c-0.7,0.5-1.6,0.9-2.5,0.9l-3.1,0.1c-1.4,0.1-2.6,1.1-2.9,2.4l-0.7,3
		c-0.2,0.9-0.7,1.7-1.3,2.3L13,25.5c-1,0.9-1.3,2.5-0.7,3.7l1.4,2.7c0.4,0.8,0.6,1.7,0.5,2.6l-0.4,3.1c-0.2,1.4,0.6,2.7,1.9,3.3
		l2.8,1.2c0.8,0.3,1.5,0.9,2,1.7l1.7,2.6c0.8,1.2,2.2,1.7,3.5,1.3l2.9-0.9c0.4-0.1,0.9-0.2,1.3-0.2c0.4,0,0.9,0.1,1.3,0.2l2.9,0.9
		c1.3,0.4,2.8-0.1,3.5-1.3l1.7-2.6c0.5-0.8,1.2-1.3,2-1.7l2.8-1.2c1.3-0.5,2.1-1.9,1.9-3.3l-0.4-3.1c-0.1-0.9,0-1.8,0.5-2.6l1.4-2.7
		c0.6-1.2,0.4-2.8-0.7-3.7L44.7,23.5z M30,42.1c-6.7,0-12.1-5.4-12.1-12.1S23.3,17.9,30,17.9S42.1,23.3,42.1,30S36.7,42.1,30,42.1z"
		/>
</g>
</svg>
