<?xml version="1.0" encoding="UTF-8"?><svg id="a" xmlns="http://www.w3.org/2000/svg" viewBox="0 0 60 60"><path d="M30,.5C13.71,.5,.5,13.71,.5,30s13.21,29.5,29.5,29.5,29.5-13.21,29.5-29.5S46.29,.5,30,.5Zm.25,44.71c-.08,.02-.17,.02-.25,.02s-.17,0-.25-.02c-13.44-2.51-13.36-18.86-13.01-23.81,.06-.9,.69-1.63,1.57-1.83,1.88-.43,5.8-1.59,10.86-4.58,.52-.3,1.15-.3,1.67,0,5.06,2.99,8.97,4.16,10.86,4.58,.88,.2,1.5,.93,1.57,1.83,.34,4.95,.42,21.3-13.01,23.81Z" fill="#9cca3c"/><path d="M41.49,20.45c-1.93-.44-5.95-1.63-11.11-4.68-.12-.07-.25-.1-.38-.1s-.26,.03-.38,.1c-5.16,3.05-9.18,4.25-11.11,4.68-.49,.11-.84,.52-.87,1.02-.33,4.76-.43,20.49,12.28,22.87,.05,0,.11,0,.17,0h0c12.71-2.37,12.62-18.1,12.28-22.87-.04-.5-.39-.91-.87-1.02Zm-4.51,5.13l-9.12,9.44c-.08,.09-.2,.14-.32,.14h0c-.12,0-.24-.06-.32-.15l-4.25-4.79c-.16-.19-.15-.47,.04-.63,.18-.16,.47-.15,.63,.04l3.93,4.43,8.78-9.09c.17-.18,.46-.18,.63-.01,.18,.17,.18,.45,.01,.63Z" fill="#9cca3c"/></svg>